<?xml version="1.0" encoding="utf-8"?>
<!-- Generator: Adobe Illustrator 22.0.0, SVG Export Plug-In . SVG Version: 6.00 Build 0)  -->
<svg version="1.1" id="Layer_1" xmlns="http://www.w3.org/2000/svg" xmlns:xlink="http://www.w3.org/1999/xlink" x="0px" y="0px"
	 viewBox="0 0 50 15" style="enable-background:new 0 0 50 15;" xml:space="preserve">
<style type="text/css">
	.st0{fill:#B1874A;}
</style>
<g>
	<g>
		<g>
			<polygon class="st0" points="17.6,10 16,5.7 14.3,5.7 16.8,11.3 18.4,11.3 20.9,5.7 19.2,5.7 			"/>
			<rect x="21.3" y="5.7" class="st0" width="1.5" height="5.6"/>
			<polygon class="st0" points="25.4,5.7 23.9,5.7 23.9,11.3 28.8,11.3 28.8,10.2 25.4,10.2 			"/>
			<path class="st0" d="M31.4,5.7l-2.5,5.6h1.6l0.5-1.2h2.6l0.5,1.2h1.6l-2.5-5.6H31.4z M31.4,9.1l0.9-2.2l0.9,2.2H31.4z"/>
			<path class="st0" d="M46.9,5.7H45l-2.5,5.6h1.6l0.5-1.2h2.6l0.5,1.2h1.6L46.9,5.7z M45.1,9.1l0.9-2.2l0.9,2.2H45.1z"/>
			<path class="st0" d="M38.7,11.5h0.5l0,0c0.5,0,0.9-0.1,1.2-0.1c0.4-0.1,0.7-0.2,1-0.4c0.3-0.2,0.5-0.4,0.7-0.7
				c0.2-0.3,0.3-0.6,0.3-1h-1.7c-0.1,0.4-0.3,0.7-0.5,0.9c-0.3,0.2-0.6,0.3-1.1,0.3c-0.3,0-0.6-0.1-0.9-0.2
				c-0.2-0.1-0.4-0.3-0.5-0.5c-0.1-0.2-0.2-0.4-0.3-0.6c-0.1-0.2-0.1-0.4-0.1-0.6c0-0.2,0-0.4,0.1-0.6c0.1-0.2,0.1-0.4,0.3-0.6
				c0.1-0.2,0.3-0.3,0.5-0.5c0.2-0.1,0.5-0.2,0.9-0.2c0.4,0,0.8,0.1,1.1,0.3c0.3,0.2,0.5,0.5,0.5,0.9h1.6c-0.1-0.5-0.2-0.8-0.4-1.1
				c-0.2-0.3-0.5-0.5-0.8-0.7c-0.3-0.2-0.6-0.3-1-0.3c-0.4-0.1-0.7-0.1-1.1-0.1c-0.5,0-1,0.1-1.4,0.2c-0.4,0.1-0.8,0.3-1,0.5
				c-0.3,0.2-0.5,0.5-0.7,0.9c-0.2,0.4-0.2,0.8-0.2,1.3c0,0.9,0.2,1.7,0.7,2.1C37.1,11.1,37.8,11.4,38.7,11.5L38.7,11.5z"/>
			<path class="st0" d="M39.9,11.4c-0.1-0.1-0.3-0.2-0.5-0.2c-0.1,0-0.2,0-0.3,0l0.1-0.2h-0.5l-0.3,0.5l0.2,0.1
				c0.1,0,0.3-0.1,0.4-0.1c0.2,0,0.3,0.1,0.3,0.2c0,0.1,0,0.2-0.1,0.2c-0.1,0-0.2,0.1-0.3,0.1c-0.2,0-0.5,0-0.6-0.1L38,12.5
				c0.1,0,0.2,0.1,0.4,0.1c0.2,0,0.4,0,0.6,0c0.1,0,0.3,0,0.4,0c0.1,0,0.2-0.1,0.4-0.1c0.1-0.1,0.2-0.1,0.3-0.2
				c0.1-0.1,0.1-0.2,0.1-0.3C40.2,11.7,40.1,11.5,39.9,11.4z"/>
			<g>
				<path class="st0" d="M13.3,5.6c0,0-0.1-0.6-0.6-1.3C12,2.9,10.3,0.9,7.2,0.9c-3.1,0-4.8,2-5.5,3.4C1.3,5.1,1.2,5.7,1.2,5.7
					s3.2-0.1,5.2,2.8c1.7,2.5,0.8,5.1,0.8,5.1L13.3,5.6z"/>
				<path class="st0" d="M2.3,13.2c0,0.5-0.4,0.8-0.8,0.8c-0.5,0-0.8-0.4-0.8-0.8c0-0.5,0.4-0.8,0.8-0.8C1.9,12.4,2.3,12.8,2.3,13.2
					z"/>
				<path class="st0" d="M4.6,10.2c0,0.9-0.7,1.6-1.6,1.6c-0.9,0-1.6-0.7-1.6-1.6c0-0.9,0.7-1.6,1.6-1.6C3.9,8.6,4.6,9.3,4.6,10.2z"
					/>
			</g>
		</g>
	</g>
</g>
</svg>
