<?xml version="1.0" encoding="utf-8"?>
<!-- Generator: Adobe Illustrator 22.0.0, SVG Export Plug-In . SVG Version: 6.00 Build 0)  -->
<svg version="1.1" id="Layer_1" xmlns="http://www.w3.org/2000/svg" xmlns:xlink="http://www.w3.org/1999/xlink" x="0px" y="0px"
	 viewBox="0 0 195 45" style="enable-background:new 0 0 195 45;" xml:space="preserve">
<style type="text/css">
	.st0{fill:#010101;}
</style>
<g>
	<g>
		<path class="st0" d="M12,44.2c-0.2-0.4,0-1,0.4-1.8c0.5-0.8,1.1-1.6,1.8-2.6c0.8-1.1,1.8-2.4,2.9-3.7c1.1-1.4,2.4-2.8,3.7-4.4
			l4-4.5c-1.3,0.2-2.6,0.3-3.8,0.5c-1.2,0.1-2.3,0.3-3.3,0.4c-1,0.1-1.8,0.2-2.5,0.3c-0.7,0.1-1.2,0.1-1.4,0.2
			c-0.1,0.1-0.3,0-0.4-0.3c0-0.1,0-0.1,0.1-0.2c0.1-0.1,0.1-0.1,0.2-0.2c0.2,0,0.7-0.1,1.5-0.1c0.7-0.1,1.6-0.1,2.7-0.2
			c1.1-0.1,2.2-0.2,3.5-0.4c1.3-0.2,2.6-0.3,4-0.5c2.3-2.5,4.7-5.1,7.3-7.8c2.5-2.7,5-5.3,7.4-7.8c1.9-2,3.5-3.6,5-5l0.6-0.5
			l-0.8,0.1c-2,0.3-4.1,0.5-6.5,0.8C36,6.5,33.5,6.7,31,7.1c-2.9,0.3-5.8,0.7-8.6,1.1c-2.8,0.4-5.5,0.9-7.9,1.5
			c-2.4,0.6-4.6,1.3-6.4,2c-1.8,0.8-3.1,1.7-4,2.8c-0.6,0.9-0.9,1.6-0.7,2.2c0.2,0.5,0.7,1,1.5,1.3c0.8,0.4,1.9,0.6,3.3,0.7
			c1.4,0.1,2.9,0,4.5-0.2c1.6-0.2,3.2-0.5,4.9-0.9c1.6-0.4,3.1-0.9,4.4-1.6c1.3-0.6,2.5-1.3,3.4-2.1c0.9-0.8,1.5-1.6,1.8-2.5
			c0-0.3,0.1-0.4,0.4-0.2c0.1,0,0.1,0,0.2,0.1c0.1,0.1,0.1,0.2,0,0.3c-0.3,1-0.9,1.9-1.9,2.8c-1,0.8-2.2,1.6-3.6,2.2
			c-1.4,0.6-3,1.2-4.6,1.6c-1.7,0.4-3.3,0.7-4.9,0.9c-1.7,0.2-3.2,0.2-4.6,0.2c-1.4-0.1-2.6-0.3-3.5-0.7c-1-0.4-1.7-1-2-1.7
			c-0.3-0.8,0-1.7,0.8-2.8c0.8-1.2,2.2-2.2,4.1-3c1.9-0.8,4.1-1.6,6.6-2.2c2.5-0.6,5.2-1.1,8.1-1.5s5.8-0.7,8.6-1
			c2.9-0.3,5.7-0.6,8.3-0.9s5-0.6,7.1-0.9h0.3l0.9-0.8c0.5-0.4,1-0.8,1.5-1.1C49.6,2.3,50,2,50.4,1.8c0.5-0.3,1-0.5,1.3-0.6
			c0.4-0.1,0.7-0.1,1,0c0.3,0.1,0.6,0.2,0.7,0.5c0.2,0.2,0.2,0.5,0.1,0.8c-0.2,0.7-0.8,1.3-1.8,1.7c-1,0.4-2.3,0.7-3.9,1L47,5.2
			l-0.1,0.1c-0.8,0.7-1.7,1.6-2.8,2.6c-1,1-2.2,2.2-3.5,3.4l-14,15c1.5-0.2,3-0.4,4.4-0.6c1.5-0.2,2.9-0.5,4.2-0.8
			c1.3-0.3,2.6-0.7,3.7-1c1.1-0.4,2.1-0.8,2.8-1.2c0.1-0.1,0.1-0.1,0.2-0.1c0.1,0,0.1,0.1,0.2,0.2c0.1,0.2,0.1,0.4-0.1,0.5
			c-0.8,0.5-1.8,0.9-3,1.2c-1.2,0.4-2.5,0.7-3.9,1c-1.4,0.3-2.9,0.6-4.4,0.8c-1.5,0.2-3,0.5-4.5,0.7h-0.4c-0.8,0.9-1.6,1.8-2.3,2.7
			c-0.7,0.9-1.5,1.7-2.2,2.6c-1.4,1.5-2.6,3-3.7,4.4c-1.1,1.4-2.1,2.6-2.9,3.6c-0.5,0.7-0.9,1.2-1.2,1.7c-0.3,0.4-0.5,0.8-0.6,1.1
			c-0.1,0.3-0.2,0.5-0.3,0.7s-0.1,0.3-0.1,0.3c0.1,0.2,0,0.3-0.2,0.4C12.3,44.5,12.2,44.5,12,44.2z M52.9,2.3c0-0.4-0.2-0.5-0.6-0.4
			S51.5,2,51,2.3s-1.1,0.6-1.6,1c-0.5,0.4-1,0.7-1.3,0.9v0.1c1.1-0.2,2-0.4,2.6-0.6c0.7-0.2,1.1-0.4,1.5-0.6
			c0.3-0.2,0.5-0.3,0.6-0.5C52.9,2.5,52.9,2.4,52.9,2.3z"/>
		<path class="st0" d="M39.7,22.9c0.2-0.5,0.6-1,1.1-1.4c0.5-0.4,1-0.6,1.5-0.7c0.4-0.1,0.8-0.1,1.1,0c0.4,0.1,0.5,0.3,0.6,0.6
			c0,0.3-0.1,0.6-0.4,0.9c-0.3,0.3-0.7,0.6-1.1,0.8c-0.4,0.2-0.9,0.5-1.3,0.6c-0.4,0.2-0.7,0.3-0.8,0.3c0.2,0.5,0.5,0.9,1.1,1.1
			c0.6,0.2,1.2,0.3,2,0.2c1.3-0.2,2.7-0.6,4-1.1c1.3-0.6,2.4-1.2,3.4-1.8c0.2-0.2,0.4-0.2,0.5,0c0.1,0.2,0.1,0.4-0.1,0.5
			c-0.5,0.4-1.1,0.7-1.8,1.1c-0.7,0.4-1.4,0.7-2.2,1c-0.8,0.3-1.5,0.5-2.3,0.7c-0.8,0.2-1.6,0.3-2.3,0.3c-0.5,0-0.9-0.1-1.4-0.2
			c-0.4-0.2-0.8-0.4-1.1-0.7c-0.3-0.3-0.5-0.6-0.6-1C39.4,23.8,39.4,23.4,39.7,22.9z M43.1,21.4c-0.6-0.1-1.2,0-1.8,0.6
			c-0.6,0.5-1,1-1.2,1.6c0.1-0.1,0.4-0.2,0.7-0.3c0.3-0.2,0.7-0.3,1-0.5c0.4-0.2,0.7-0.4,0.9-0.6C43,21.8,43.1,21.6,43.1,21.4z"/>
		<path class="st0" d="M53.3,26c-0.3-0.4-0.3-0.9,0.1-1.5c0.3-0.6,0.7-1.1,1.2-1.7v-0.1c-0.2-0.3-0.3-0.6-0.4-0.8
			c-0.1-0.2-0.1-0.5-0.2-0.8c-0.9,0.6-1.7,1.1-2.3,1.5c-0.6,0.4-1,0.6-1.3,0.8c-0.3,0-0.4,0-0.4-0.1c-0.1-0.1-0.1-0.2-0.1-0.3
			c0-0.1,0.1-0.2,0.2-0.2c0.2-0.1,0.4-0.3,0.6-0.4c0.2-0.1,0.5-0.3,0.8-0.5c0.3-0.2,0.6-0.4,1-0.7c0.4-0.3,0.9-0.6,1.4-1l0.1-0.3
			c0.1-0.6,0.4-1.1,0.8-1.6c0.4-0.5,0.9-0.9,1.4-1.3c0.5-0.4,1.1-0.7,1.6-0.9c0.5-0.2,1-0.3,1.3-0.3c0.2,0,0.3,0.2,0.3,0.6
			c-0.1,0.3-0.3,0.7-0.8,1.1c-0.5,0.4-0.9,0.8-1.3,1c-0.3,0.3-0.8,0.6-1.4,1.1l-1.3,0.9c0,0.6,0.3,1.2,0.8,2c0.1,0.3,0.1,0.4,0,0.4
			c-0.3,0.3-0.7,0.6-1,1.1c-0.4,0.4-0.6,0.8-0.6,1.3c0,0.2,0.2,0.4,0.6,0.4c0.4,0,0.8-0.1,1.4-0.2c0.6-0.2,1.2-0.4,1.9-0.6
			c0.7-0.2,1.4-0.5,2-0.8c0.7-0.3,1.3-0.6,1.9-0.8c0.6-0.3,1-0.5,1.4-0.7c0.2-0.1,0.3-0.1,0.3-0.1c0.1,0.1,0.1,0.1,0.2,0.2
			c0.1,0.1,0.1,0.2,0.1,0.3c0,0.1-0.1,0.2-0.2,0.2c-0.5,0.3-1.2,0.7-2.2,1.2c-1,0.5-2,0.9-3.1,1.3c-1.1,0.4-2.1,0.7-3,0.8
			C54.3,26.6,53.6,26.4,53.3,26z M58.6,16.7c-0.7,0.1-1.5,0.5-2.2,1.1c-0.8,0.6-1.3,1.2-1.6,1.8c0.4-0.3,0.7-0.6,1-0.8
			c0.3-0.2,0.6-0.5,0.9-0.7c0.3-0.2,0.6-0.5,0.9-0.7C57.9,17.2,58.3,16.9,58.6,16.7z"/>
		<path class="st0" d="M62.5,25.1c0.1-0.2,0.3-0.4,0.7-0.7c0.4-0.3,0.7-0.6,0.8-0.9c0.2-0.3,0.3-0.6,0.3-0.9c-0.3,0.2-0.7,0.5-1,0.6
			c-0.3,0.2-0.6,0.4-1,0.5c-0.2,0.1-0.4,0.1-0.5-0.2c-0.1-0.2-0.1-0.4,0.2-0.5c0.2-0.1,0.4-0.2,0.7-0.4c0.3-0.2,0.5-0.3,0.7-0.4
			c0.2-0.1,0.4-0.3,0.6-0.4s0.2-0.2,0.2-0.3v-0.1c0.1-0.2,0.2-0.3,0.3-0.3c0.1,0,0.2,0.1,0.3,0.3c0.1,0.4,0.1,0.7,0.1,1
			c0,0.3-0.1,0.5-0.2,0.8c1.1-0.6,2-1.1,2.7-1.5c0.8-0.4,1.4-0.4,1.9-0.1c0.2,0.1,0.3,0.3,0.3,0.5s-0.1,0.4-0.2,0.6
			c-0.1,0.4-0.3,0.8-0.4,1.2c-0.1,0.4-0.2,0.7-0.3,0.9c0,0.2,0,0.4,0.1,0.5c0.1,0.1,0.4,0.1,0.8,0.1c0.8-0.2,1.9-0.5,3.1-1.1
			c1.2-0.5,2.4-1.2,3.4-1.9c0.2-0.1,0.4-0.1,0.5,0.1c0.1,0.2,0.1,0.4-0.1,0.4c-1.2,0.8-2.3,1.5-3.5,2c-1.2,0.5-2.4,0.9-3.5,1.1
			c-0.7,0.1-1.2,0-1.3-0.3c-0.2-0.3-0.3-0.6-0.2-1.1c0.1-0.4,0.2-0.9,0.4-1.3c0.2-0.5,0.4-0.9,0.4-1.1c-0.1-0.2-0.3-0.2-0.7-0.1
			c-0.4,0.1-0.9,0.4-1.5,0.7c-0.5,0.3-1.1,0.6-1.6,1c-0.5,0.4-0.9,0.6-1.2,0.8c-0.2,0.2-0.4,0.4-0.6,0.6c-0.2,0.2-0.3,0.3-0.4,0.4
			c-0.2,0.1-0.3,0.1-0.5,0C62.4,25.5,62.4,25.4,62.5,25.1z"/>
		<path class="st0" d="M74.5,26.3c-0.4-0.2-0.6-0.6-0.5-1.1c0.1-0.5,0.4-1,0.8-1.5c0.4-0.5,0.9-0.9,1.6-1.3c0.6-0.4,1.3-0.6,1.9-0.6
			c0.4,0,0.8,0.1,1.1,0.3c0.3,0.2,0.6,0.4,0.7,0.6c0.1,0.1,0,0.2-0.1,0.3c-0.1,0.1-0.2,0.1-0.3,0c-0.2-0.1-0.3-0.2-0.5-0.3
			c-0.2-0.1-0.4-0.2-0.9-0.2s-0.9,0.1-1.4,0.4c-0.5,0.3-0.9,0.6-1.3,1c-0.4,0.4-0.6,0.7-0.8,1.1c-0.2,0.3-0.1,0.6,0.1,0.7
			c0.3,0.1,0.7,0,1.3-0.2c0.5-0.2,1.1-0.5,1.7-0.8c0.6-0.3,1.1-0.7,1.7-1.1c0.5-0.4,1-0.7,1.4-1c0.4-0.3,0.6-0.3,0.7-0.1
			c0.1,0.2,0.1,0.4-0.1,0.5c-0.5,0.3-0.8,0.7-0.9,1.2s-0.1,0.8,0.1,0.9c0.2,0.1,0.7,0,1.2-0.2c0.6-0.2,1.1-0.5,1.7-0.8
			c0.6-0.3,1.2-0.6,1.7-0.9c0.5-0.3,0.9-0.5,1-0.6c0.2-0.1,0.4-0.1,0.5,0.2c0.1,0.2,0.1,0.4-0.1,0.5c-0.2,0.1-0.6,0.4-1.2,0.7
			c-0.5,0.3-1.1,0.7-1.7,1c-0.6,0.3-1.2,0.6-1.8,0.8c-0.6,0.2-1.1,0.3-1.5,0.2c-0.4-0.1-0.6-0.3-0.7-0.7c-0.1-0.4,0-0.7,0.1-1
			c-0.4,0.3-0.8,0.6-1.4,0.9c-0.5,0.3-1.1,0.6-1.6,0.9c-0.6,0.2-1.1,0.4-1.5,0.6C75.1,26.4,74.7,26.4,74.5,26.3z"/>
		<path class="st0" d="M85.6,25.1c0.1-0.2,0.3-0.4,0.7-0.7c0.4-0.3,0.7-0.6,0.8-0.9c0.2-0.3,0.3-0.6,0.3-0.9c-0.3,0.2-0.7,0.5-1,0.6
			c-0.3,0.2-0.6,0.4-1,0.5c-0.2,0.1-0.4,0.1-0.5-0.2c-0.1-0.2-0.1-0.4,0.2-0.5c0.2-0.1,0.4-0.2,0.7-0.4c0.3-0.2,0.5-0.3,0.7-0.4
			c0.2-0.1,0.4-0.3,0.6-0.4c0.2-0.1,0.2-0.2,0.2-0.3v-0.1c0.1-0.2,0.2-0.3,0.3-0.3c0.1,0,0.2,0.1,0.3,0.3c0.1,0.4,0.1,0.7,0.1,1
			c0,0.3-0.1,0.5-0.2,0.8c1.1-0.6,2-1.1,2.7-1.5c0.8-0.4,1.4-0.4,1.9-0.1c0.2,0.1,0.3,0.3,0.3,0.5s-0.1,0.4-0.2,0.6
			c-0.1,0.4-0.3,0.8-0.4,1.2c-0.1,0.4-0.2,0.7-0.3,0.9c0,0.2,0,0.4,0.1,0.5c0.1,0.1,0.4,0.1,0.8,0.1c0.8-0.2,1.9-0.5,3.1-1.1
			c1.2-0.5,2.4-1.2,3.4-1.9c0.2-0.1,0.4-0.1,0.5,0.1c0.1,0.2,0.1,0.4-0.1,0.4c-1.2,0.8-2.3,1.5-3.5,2c-1.2,0.5-2.4,0.9-3.5,1.1
			c-0.7,0.1-1.2,0-1.3-0.3c-0.2-0.3-0.3-0.6-0.2-1.1c0.1-0.4,0.2-0.9,0.4-1.3c0.2-0.5,0.4-0.9,0.4-1.1C92,22,91.8,22,91.3,22.1
			c-0.4,0.1-0.9,0.4-1.5,0.7c-0.5,0.3-1.1,0.6-1.6,1c-0.5,0.4-0.9,0.6-1.2,0.8c-0.2,0.2-0.4,0.4-0.6,0.6c-0.2,0.2-0.3,0.3-0.4,0.4
			c-0.2,0.1-0.3,0.1-0.5,0C85.5,25.5,85.5,25.4,85.6,25.1z"/>
		<path class="st0" d="M97.8,26.6c-0.3-0.1-0.4-0.3-0.5-0.6c0-0.3,0-0.5,0.1-0.8c0.1-0.3,0.3-0.6,0.5-0.9c0.2-0.3,0.4-0.5,0.6-0.7
			c0.4-0.5,0.9-1,1.5-1.5c0.6-0.4,1.1-0.7,1.6-0.7c0.2,0,0.4,0,0.7,0.1c0.2,0.1,0.5,0.2,0.6,0.4c0.2-0.9,0.7-1.9,1.4-3
			c0.7-1.1,1.4-2.1,2.2-3c0.8-0.9,1.6-1.6,2.4-2c0.8-0.5,1.5-0.5,2-0.2c0.3,0.4,0.3,0.9,0.1,1.5c-0.3,0.6-0.7,1.3-1.2,2
			c-0.5,0.7-1.2,1.4-1.9,2.2c-0.7,0.7-1.4,1.4-1.9,2c-0.4,0.4-0.8,0.8-1.2,1.1c-0.4,0.4-0.9,0.8-1.4,1.3v0.1c0,0.3,0,0.5,0.1,0.5
			c0.1,0.3,0.4,0.4,0.8,0.5c0.4,0.1,0.9,0,1.6-0.2c0.6-0.2,1.3-0.4,2-0.8c0.7-0.4,1.5-0.8,2.2-1.3c0.2-0.1,0.4-0.1,0.5,0
			c0.1,0.2,0.1,0.4-0.1,0.5c-0.7,0.5-1.5,1-2.3,1.5c-0.8,0.4-1.6,0.8-2.4,0.9c-0.8,0.2-1.5,0.2-2,0.1c-0.6-0.2-0.9-0.6-1.1-1.3
			c-0.3,0.2-0.7,0.5-1.1,0.8c-0.4,0.3-0.9,0.6-1.3,0.9c-0.5,0.3-0.9,0.5-1.3,0.6c-0.4,0.1-0.8,0.1-1.1-0.1H97.8z M102.8,22.8v-0.1
			h-0.1c-0.1,0-0.1-0.1-0.1-0.2c-0.1-0.2-0.4-0.3-0.8-0.3c-0.3-0.1-0.7,0.1-1.2,0.4c-0.5,0.4-1,0.8-1.4,1.3c-0.9,1-1.2,1.7-0.9,2
			l0.1,0.1c0.1,0.1,0.4,0,0.7-0.2c0.4-0.2,0.8-0.4,1.3-0.7c0.5-0.3,0.9-0.6,1.3-0.9c0.4-0.3,0.8-0.6,1.1-0.8L102.8,22.8z
			 M110.4,14.2c-0.5-0.1-1.1,0.1-1.8,0.7c-0.8,0.6-1.5,1.4-2.2,2.4c-0.7,0.9-1.4,1.9-1.9,3c-0.6,1-0.9,1.9-1,2.6
			c0.4-0.3,0.9-0.7,1.4-1.3c0.6-0.5,1.1-1.1,1.7-1.8c0.6-0.6,1.2-1.3,1.7-1.9c0.6-0.6,1-1.2,1.4-1.7c0.4-0.5,0.7-1,0.8-1.3
			C110.7,14.5,110.6,14.3,110.4,14.2z"/>
		<path class="st0" d="M108.8,26.3c-0.4-0.2-0.6-0.6-0.5-1.1c0.1-0.5,0.4-1,0.8-1.5c0.4-0.5,0.9-0.9,1.6-1.3
			c0.6-0.4,1.3-0.6,1.9-0.6c0.4,0,0.7,0.1,1,0.3c0.2,0.2,0.4,0.4,0.5,0.6c0.1,0.1,0,0.2-0.1,0.3c-0.1,0.1-0.2,0.1-0.3,0
			c-0.2-0.1-0.3-0.2-0.3-0.3c-0.1-0.1-0.3-0.2-0.7-0.2c-0.4,0-0.9,0.1-1.4,0.4c-0.5,0.3-0.9,0.6-1.3,1c-0.4,0.4-0.6,0.7-0.8,1.1
			c-0.2,0.3-0.1,0.6,0.1,0.7c0.3,0.1,0.7,0,1.2-0.2c0.5-0.2,1-0.5,1.6-0.8c0.5-0.3,1.1-0.7,1.6-1.1c0.5-0.4,1-0.7,1.3-1
			c0.2-0.2,0.4-0.2,0.6,0c0.2,0.2,0.2,0.3,0.1,0.4c-0.2,0.1-0.3,0.3-0.3,0.6c0,0.3,0,0.5,0.1,0.8c0.1,0.3,0.3,0.6,0.5,0.8
			c0.2,0.2,0.6,0.4,1,0.5c0.4,0.1,0.9,0,1.5-0.1c0.5-0.2,1.1-0.4,1.6-0.6c0.5-0.3,1-0.6,1.4-1c0.4-0.4,0.7-0.8,0.9-1.2
			c0.1-0.2,0.2-0.2,0.4-0.1s0.2,0.4,0,0.7c-0.2,0.3-0.5,0.7-0.9,1c-0.4,0.4-0.8,0.7-1.3,1c-0.5,0.3-1,0.5-1.6,0.7
			c-0.6,0.2-1.2,0.3-1.8,0.2c-0.6-0.1-1.2-0.3-1.6-0.8c-0.4-0.5-0.7-1.1-0.7-2c-0.4,0.4-0.9,0.8-1.4,1.1c-0.6,0.4-1.1,0.7-1.7,1
			c-0.6,0.3-1.1,0.5-1.6,0.6C109.4,26.4,109,26.4,108.8,26.3z"/>
		<path class="st0" d="M136.8,32.2c-0.9-0.2-1.6-0.6-2.1-1.1c-0.5-0.5-0.9-1.1-1.1-1.7c-0.2-0.7-0.3-1.4-0.2-2.1
			c0.1-0.8,0.2-1.5,0.4-2.3c0.4-1.3,1-2.8,2-4.3c0.9-1.5,2.1-3.1,3.4-4.7s2.8-3.1,4.5-4.6c1.7-1.5,3.5-2.8,5.5-4.1
			c2.5-1.5,5-2.8,7.5-3.9c2.5-1.1,4.8-1.9,6.9-2.3c2.1-0.5,3.9-0.6,5.4-0.4c1.5,0.2,2.6,0.9,3.2,2c0.5,1,0.5,2.1,0.1,3.2
			c-0.4,1.1-1.2,2.3-2.2,3.4c-1.1,1.1-2.3,2.3-3.9,3.3c-1.5,1.1-3.1,2.1-4.7,3c-1.5,0.9-3.1,1.7-4.8,2.4c-1.7,0.7-3.2,1.3-4.7,1.7
			c-1.5,0.4-2.8,0.6-3.8,0.5c-1.1-0.1-1.7-0.4-2-1.2c-0.1-0.5-0.1-1,0.2-1.6c0.3-0.6,0.7-1.2,1.2-1.9c0.6-0.7,1.2-1.3,2-1.9
			c0.8-0.6,1.5-1.2,2.4-1.6c0.8-0.5,1.7-0.9,2.5-1.1c0.8-0.3,1.6-0.4,2.4-0.4c0.3,0.1,0.4,0.3,0.4,0.4c0,0.2-0.1,0.3-0.4,0.3
			c-1.1,0-2.2,0.2-3.5,0.8c-1.2,0.6-2.4,1.3-3.5,2.1c-1.1,0.8-1.9,1.7-2.5,2.5c-0.6,0.9-0.8,1.6-0.6,2.1c0.2,0.4,0.7,0.7,1.5,0.7
			c0.8,0.1,2-0.1,3.3-0.5c1.3-0.4,2.8-0.9,4.4-1.6c1.6-0.7,3.2-1.4,4.9-2.3c1.8-1,3.5-2.1,5-3.2s2.7-2.2,3.7-3.3
			c1-1.1,1.7-2.1,2-3.1c0.4-1,0.4-1.9,0-2.8c-0.5-0.8-1.4-1.3-2.7-1.5c-1.3-0.2-3-0.1-4.9,0.3c-2,0.4-4.2,1.1-6.6,2.2
			c-2.5,1-5,2.3-7.7,4c-1.9,1.1-3.6,2.4-5.1,3.7c-1.6,1.4-3,2.7-4.2,4.1c-1.2,1.4-2.3,2.8-3.2,4.2c-0.9,1.4-1.6,2.7-2.1,4
			c-0.3,0.7-0.6,1.5-0.7,2.2s-0.2,1.6-0.1,2.3s0.4,1.4,0.9,2c0.5,0.6,1.2,1,2.1,1.2c0.7,0.1,1.6,0.1,2.9-0.2
			c1.2-0.2,2.6-0.6,4.2-1.1c1.5-0.5,3.2-1,4.9-1.7c1.7-0.7,3.4-1.4,5.1-2.1c1.7-0.7,3.2-1.5,4.6-2.2c1.4-0.7,2.6-1.4,3.6-2
			c0.2-0.1,0.4-0.1,0.5,0c0.1,0.3,0.1,0.5-0.1,0.5c-0.6,0.4-1.5,0.9-2.8,1.6c-1.3,0.7-2.8,1.4-4.4,2.1c-1.7,0.7-3.4,1.5-5.3,2.2
			c-1.9,0.8-3.7,1.4-5.4,2c-1.7,0.6-3.3,1-4.8,1.3C138.7,32.3,137.6,32.4,136.8,32.2z"/>
		<path class="st0" d="M164.7,26c-0.3-0.4-0.3-0.9,0.1-1.5c0.3-0.6,0.7-1.1,1.2-1.7v-0.1c-0.2-0.3-0.3-0.6-0.4-0.8
			c-0.1-0.2-0.1-0.5-0.2-0.8c-0.9,0.6-1.7,1.1-2.3,1.5c-0.6,0.4-1,0.6-1.3,0.8c-0.3,0-0.4,0-0.4-0.1c-0.1-0.1-0.1-0.2-0.1-0.3
			c0-0.1,0.1-0.2,0.2-0.2c0.2-0.1,0.4-0.3,0.6-0.4c0.2-0.1,0.5-0.3,0.8-0.5c0.3-0.2,0.6-0.4,1-0.7c0.4-0.3,0.9-0.6,1.4-1l0.1-0.3
			c0.1-0.6,0.4-1.1,0.8-1.6c0.4-0.5,0.9-0.9,1.4-1.3c0.5-0.4,1.1-0.7,1.6-0.9c0.5-0.2,1-0.3,1.3-0.3c0.2,0,0.3,0.2,0.3,0.6
			c-0.1,0.3-0.3,0.7-0.8,1.1c-0.5,0.4-0.9,0.8-1.3,1c-0.3,0.3-0.8,0.6-1.4,1.1l-1.3,0.9c0,0.6,0.3,1.2,0.8,2c0.1,0.3,0.1,0.4,0,0.4
			c-0.3,0.3-0.7,0.6-1,1.1c-0.4,0.4-0.6,0.8-0.6,1.3c0,0.2,0.2,0.4,0.6,0.4c0.4,0,0.8-0.1,1.4-0.2c0.6-0.2,1.2-0.4,1.9-0.6
			c0.7-0.2,1.4-0.5,2-0.8c0.7-0.3,1.3-0.6,1.9-0.8c0.6-0.3,1-0.5,1.4-0.7c0.2-0.1,0.3-0.1,0.3-0.1c0.1,0.1,0.1,0.1,0.2,0.2
			c0.1,0.1,0.1,0.2,0.1,0.3c0,0.1-0.1,0.2-0.2,0.2c-0.5,0.3-1.2,0.7-2.2,1.2c-1,0.5-2,0.9-3.1,1.3c-1.1,0.4-2.1,0.7-3,0.8
			C165.6,26.6,165,26.4,164.7,26z M170,16.7c-0.7,0.1-1.5,0.5-2.2,1.1c-0.8,0.6-1.3,1.2-1.6,1.8c0.4-0.3,0.7-0.6,1-0.8
			c0.3-0.2,0.6-0.5,0.9-0.7c0.3-0.2,0.6-0.5,0.9-0.7C169.3,17.2,169.6,16.9,170,16.7z"/>
		<path class="st0" d="M179.6,26c-0.4-0.1-0.7-0.3-0.9-0.7c-0.2-0.4-0.2-0.7,0-1.1c-1,0.6-1.8,1-2.5,1.1c-0.6,0.1-1.1,0-1.3-0.2
			c-0.2-0.2-0.3-0.4-0.4-0.7c-0.1-0.3,0-0.7,0.3-1.3l-1.2,0.7c-0.3,0.1-0.5,0.1-0.6-0.1c-0.1-0.2,0-0.3,0.2-0.4
			c0.4-0.2,0.8-0.4,1.2-0.7c0.4-0.3,0.7-0.5,0.9-0.7l0.1-0.1c0.3-0.3,0.5-0.4,0.7-0.2c0.2,0.1,0.2,0.4-0.1,0.6l-0.2,0.2
			c-0.6,1-0.7,1.7-0.4,2.1c0.3,0.2,0.8,0.1,1.5-0.2c0.7-0.3,1.5-0.8,2.2-1.3c0.3-0.3,0.5-0.5,0.7-0.5c0.1,0,0.2,0.1,0.3,0.2
			c0.1,0.2,0.1,0.3,0.1,0.3c-0.1,0.1-0.2,0.2-0.3,0.4c-0.4,0.6-0.6,1.1-0.5,1.3c0.1,0.3,0.3,0.4,0.6,0.5c0.4,0.1,0.7,0,1.2-0.1
			c0.4-0.1,0.8-0.2,1.1-0.3c0.4-0.1,0.7-0.3,1.1-0.4c0.3-0.2,0.6-0.3,1-0.5c0.3-0.2,0.7-0.4,1.1-0.6c0.4-0.2,0.8-0.5,1.3-0.8
			c0.3-0.2,0.4-0.2,0.5,0c0,0.2,0,0.3-0.1,0.4c-0.6,0.5-1.2,0.9-2,1.3c-0.7,0.4-1.4,0.8-2.1,1.1c-0.7,0.3-1.3,0.5-2,0.6
			C180.6,26.1,180.1,26.1,179.6,26z"/>
		<path class="st0" d="M180.8,33.3c-0.4-0.3-0.6-0.6-0.5-1c0.1-0.4,0.2-0.7,0.5-1.1c0.3-0.3,0.6-0.6,1.1-0.8
			c0.4-0.3,0.9-0.5,1.6-0.7c0.6-0.2,1.3-0.3,2.1-0.3c0.8-0.1,1.6,0.1,2.4,0.3l0.5,0.1c0.2-0.2,0.3-0.4,0.4-0.7
			c0.1-0.2,0.2-0.5,0.3-0.8c0.2-0.7,0.3-1.3,0.2-1.7c-0.1-0.4-0.3-0.7-0.6-0.9c-0.3-0.2-0.6-0.4-0.9-0.4c-0.3-0.1-0.5-0.1-0.7-0.2
			c-0.2,0-0.3-0.1-0.3-0.3c0-0.2,0-0.3,0.1-0.4c0.5-0.4,1-0.8,1.5-1.2c0.5-0.4,0.9-0.6,1.1-0.8l-0.3-0.1c-0.2,0-0.3,0-0.5,0
			c-0.1,0-0.3-0.1-0.4-0.2l-0.2-0.1c-0.5,0.4-1,0.8-1.4,1.2c-0.4,0.4-0.8,0.6-1.1,0.8c-0.2,0.1-0.4,0.1-0.5-0.2
			c-0.1-0.2-0.1-0.4,0.2-0.5c0.7-0.5,1.3-1,1.8-1.4c0.5-0.4,0.7-0.7,0.8-0.9c0.1-0.2,0.3-0.3,0.4-0.3c0.2,0,0.3,0.2,0.3,0.4
			s0.3,0.4,0.8,0.5c0.5,0.1,1,0.2,1.4,0.1c0.2-0.1,0.4,0,0.4,0.2c0.1,0.2,0,0.3-0.1,0.4c-0.8,0.4-1.5,0.8-2,1.2
			c-0.5,0.4-1,0.8-1.5,1.1c0.4,0.1,0.7,0.2,1.1,0.3c0.4,0.2,0.6,0.4,0.9,0.7c0.2,0.3,0.4,0.7,0.4,1.2c0,0.5-0.1,1.1-0.3,1.7
			l-0.4,0.8l-0.3,0.5c1,0.4,2,1,3,1.9c0.2,0.1,0.2,0.3,0.1,0.5c-0.1,0-0.2,0-0.3,0.1c-0.1,0-0.2,0-0.3-0.1c-0.5-0.4-1-0.8-1.4-1
			c-0.5-0.3-0.9-0.5-1.3-0.7l-0.2-0.1l-0.2,0.2c-0.4,0.6-0.9,1.1-1.5,1.5c-0.6,0.4-1.1,0.7-1.7,0.9c-0.9,0.4-1.8,0.6-2.6,0.7
			C182,33.9,181.3,33.7,180.8,33.3z M185.1,32.6c0.5-0.2,1-0.5,1.6-0.9c0.5-0.4,1-0.9,1.5-1.5c-0.9-0.2-1.8-0.3-2.5-0.3
			c-0.7,0-1.4,0.1-2,0.3c-0.5,0.2-0.9,0.4-1.3,0.6c-0.4,0.2-0.7,0.5-0.9,0.7c-0.4,0.5-0.4,0.9,0,1.2c0.2,0.2,0.7,0.3,1.4,0.3
			C183.4,33.2,184.2,33,185.1,32.6z"/>
	</g>
	<g>
		<path class="st0" d="M42.5,35.4c0.5,0.3,0.9,0.7,1.2,1.2c0.3,0.5,0.5,1.1,0.5,1.7s-0.2,1.2-0.5,1.7c-0.3,0.5-0.7,0.9-1.3,1.2
			c-0.5,0.3-1.1,0.4-1.8,0.4H38V35h2.7C41.4,35,42,35.1,42.5,35.4z M42.1,40.6c0.4-0.2,0.7-0.5,0.9-0.9c0.2-0.4,0.3-0.8,0.3-1.3
			c0-0.5-0.1-0.9-0.3-1.3c-0.2-0.4-0.5-0.7-0.9-0.9c-0.4-0.2-0.8-0.3-1.3-0.3h-1.8v5.1h1.8C41.2,40.9,41.7,40.8,42.1,40.6z"/>
		<path class="st0" d="M47.7,34.8c0.1,0.1,0.2,0.2,0.2,0.4s-0.1,0.3-0.2,0.4c-0.1,0.1-0.2,0.2-0.4,0.2c-0.2,0-0.3-0.1-0.4-0.2
			s-0.2-0.2-0.2-0.4s0.1-0.3,0.2-0.4c0.1-0.1,0.2-0.2,0.4-0.2C47.4,34.6,47.6,34.6,47.7,34.8z M46.8,36.6h0.9v5.1h-0.9V36.6z"/>
		<path class="st0" d="M52.4,36.9c0.3-0.2,0.7-0.3,1.1-0.3v0.9c-0.5,0-0.9,0.1-1.3,0.4c-0.3,0.3-0.5,0.7-0.5,1.2v2.7h-0.9v-5.1h0.9
			v1.1C51.9,37.4,52.1,37.1,52.4,36.9z"/>
		<path class="st0" d="M59.7,37.3c0.4,0.5,0.6,1.1,0.6,1.9c0,0.1,0,0.2,0,0.3h-4c0.1,0.5,0.3,0.8,0.6,1.1c0.3,0.3,0.7,0.4,1.2,0.4
			c0.3,0,0.6-0.1,0.8-0.2c0.3-0.1,0.5-0.3,0.7-0.5l0.5,0.5c-0.3,0.3-0.6,0.5-0.9,0.6c-0.4,0.1-0.7,0.2-1.2,0.2
			c-0.5,0-0.9-0.1-1.3-0.3c-0.4-0.2-0.7-0.5-0.9-0.9c-0.2-0.4-0.3-0.8-0.3-1.3c0-0.5,0.1-0.9,0.3-1.3c0.2-0.4,0.5-0.7,0.9-0.9
			c0.4-0.2,0.8-0.3,1.3-0.3C58.7,36.6,59.3,36.8,59.7,37.3z M59.5,38.8c0-0.5-0.2-0.8-0.5-1.1c-0.3-0.3-0.7-0.4-1.1-0.4
			c-0.4,0-0.8,0.1-1.1,0.4c-0.3,0.3-0.5,0.6-0.5,1.1H59.5z"/>
		<path class="st0" d="M65.6,41.4c-0.4,0.3-0.8,0.4-1.2,0.4s-0.7-0.1-1-0.4c-0.3-0.2-0.4-0.6-0.4-1.1v-2.8h-0.7v-0.7H63v-1.4H64v1.4
			h1.6v0.7H64v2.7c0,0.3,0.1,0.5,0.2,0.6c0.1,0.1,0.3,0.2,0.5,0.2c0.2,0,0.5-0.1,0.8-0.2L65.6,41.4z"/>
		<path class="st0" d="M71.5,36.9c0.4,0.2,0.7,0.5,0.9,0.9c0.2,0.4,0.3,0.8,0.3,1.3c0,0.5-0.1,0.9-0.3,1.3c-0.2,0.4-0.5,0.7-0.9,0.9
			c-0.4,0.2-0.8,0.3-1.4,0.3c-0.5,0-1-0.1-1.4-0.3c-0.4-0.2-0.7-0.5-0.9-0.9c-0.2-0.4-0.3-0.8-0.3-1.3c0-0.5,0.1-0.9,0.3-1.3
			c0.2-0.4,0.5-0.7,0.9-0.9c0.4-0.2,0.9-0.3,1.4-0.3C70.6,36.6,71.1,36.7,71.5,36.9z M69.2,37.6c-0.3,0.2-0.5,0.4-0.6,0.6
			c-0.1,0.3-0.2,0.6-0.2,0.9c0,0.4,0.1,0.7,0.2,0.9c0.1,0.3,0.3,0.5,0.6,0.6c0.3,0.2,0.6,0.2,0.9,0.2c0.3,0,0.6-0.1,0.9-0.2
			c0.3-0.2,0.5-0.4,0.6-0.6c0.1-0.3,0.2-0.6,0.2-0.9c0-0.3-0.1-0.7-0.2-0.9c-0.1-0.3-0.3-0.5-0.6-0.6c-0.3-0.2-0.6-0.2-0.9-0.2
			C69.8,37.4,69.5,37.5,69.2,37.6z"/>
		<path class="st0" d="M76.9,36.9c0.3-0.2,0.7-0.3,1.1-0.3v0.9c-0.5,0-0.9,0.1-1.3,0.4c-0.3,0.3-0.5,0.7-0.5,1.2v2.7h-0.9v-5.1h0.9
			v1.1C76.4,37.4,76.6,37.1,76.9,36.9z"/>
		<path class="st0" d="M83.2,41.7V41c-0.4,0.5-1,0.8-1.8,0.8c-0.4,0-0.7-0.1-0.9-0.2c-0.3-0.1-0.5-0.3-0.6-0.6
			c-0.1-0.2-0.2-0.5-0.2-0.8c0-0.5,0.2-0.8,0.5-1.1c0.3-0.3,0.8-0.4,1.4-0.4h1.6v-0.2c0-0.4-0.1-0.6-0.3-0.8c-0.2-0.2-0.5-0.3-1-0.3
			c-0.5,0-1,0.2-1.6,0.5L80,37.3c0.4-0.2,0.7-0.4,1-0.5c0.3-0.1,0.7-0.2,1.1-0.2c0.6,0,1.1,0.2,1.5,0.5c0.3,0.3,0.5,0.7,0.5,1.3
			l0,3.4H83.2z M82.7,40.7c0.3-0.2,0.5-0.5,0.5-0.8v-0.5h-1.5c-0.4,0-0.7,0.1-0.9,0.2c-0.2,0.1-0.3,0.3-0.3,0.6
			c0,0.3,0.1,0.5,0.3,0.6c0.2,0.2,0.5,0.2,0.8,0.2C82.1,41,82.4,40.9,82.7,40.7z"/>
	</g>
</g>
</svg>
