<?xml version="1.0" encoding="utf-8"?>
<!-- Generator: Adobe Illustrator 22.0.0, SVG Export Plug-In . SVG Version: 6.00 Build 0)  -->
<svg version="1.1" id="Layer_1" xmlns="http://www.w3.org/2000/svg" xmlns:xlink="http://www.w3.org/1999/xlink" x="0px" y="0px"
	 viewBox="0 0 195 45" style="enable-background:new 0 0 195 45;" xml:space="preserve">
<g>
	<path d="M5.5,21.6c-0.1-0.1-0.1-0.2-0.1-0.3c0.1-0.2,0.3-0.4,0.6-0.5c0.3-0.1,0.7-0.2,1.1-0.3c0.5-0.1,1-0.3,1.6-0.4
		c0.6-0.1,1.2-0.2,1.9-0.3c1.4-0.2,3-0.4,4.7-0.5c1.7-0.2,3.5-0.3,5.4-0.4c0.2,0,0.4,0,0.5,0c0.2,0,0.3-0.1,0.5-0.1
		c0.9-0.7,1.8-1.4,2.7-2.2c0.9-0.8,1.9-1.6,2.8-2.4c0.9-0.8,1.8-1.5,2.6-2.2c0.8-0.7,1.6-1.2,2.2-1.7c0.7-0.5,1.4-1,2.2-1.5
		c0.8-0.5,1.5-1,2.2-1.4s1.4-0.7,1.9-0.8c0.6-0.2,1-0.2,1.3,0c0.2,0.1,0.3,0.3,0.3,0.6S39.8,7.7,39.6,8c-0.2,0.4-0.4,0.7-0.8,1.1
		c-0.3,0.4-0.7,0.8-1,1.3c-0.4,0.4-0.7,0.9-1.1,1.3c-0.4,0.4-0.7,0.8-1,1.1c-0.5,0.6-1.1,1.4-1.9,2.2c-0.8,0.8-1.6,1.7-2.3,2.6
		c0.6,0,1.1-0.1,1.5-0.2c0.4-0.1,0.8-0.2,1.2-0.2l1.1-0.2c0.1,0,0.2-0.1,0.3-0.1c0.1,0,0.1,0,0.2,0c0-0.1,0-0.1,0.1-0.1
		c0.1,0,0.1,0,0.2,0.1c0.1,0.2,0.1,0.3,0,0.4c-0.1,0.1-0.2,0.1-0.3,0.2c-0.1,0-0.2,0.1-0.4,0.2l-1.1,0.1c-0.4,0.1-0.9,0.2-1.5,0.3
		c-0.6,0.1-1.1,0.1-1.8,0.2c-0.5,0.6-1,1.2-1.5,1.8c-0.5,0.6-0.9,1.2-1.2,1.7c-0.3,0.5-0.6,1-0.8,1.4c-0.2,0.4-0.2,0.8-0.1,1.1
		c0.1,0.4,0.4,0.7,0.8,0.8c0.4,0.1,1,0.1,1.6,0c0.6-0.1,1.3-0.3,2.1-0.6c0.7-0.3,1.5-0.5,2.2-0.9c0.7-0.3,1.4-0.6,2-0.9
		c0.6-0.3,1-0.6,1.4-0.7c0.1,0,0.2,0,0.3,0.1c0,0.1,0,0.2-0.1,0.3c-0.4,0.2-0.9,0.5-1.5,0.9s-1.4,0.7-2.1,1s-1.6,0.6-2.4,0.9
		c-0.8,0.3-1.6,0.4-2.2,0.5c-0.7,0.1-1.3,0-1.7-0.1c-0.5-0.2-0.7-0.5-0.8-1.1c0-0.3,0-0.7,0.2-1.1c0.2-0.4,0.4-0.9,0.7-1.4
		c0.3-0.5,0.7-1.1,1.1-1.7c0.4-0.6,0.9-1.2,1.5-1.8c-1.2,0.1-2.5,0.3-4,0.4c-1.5,0.1-3,0.2-4.5,0.4l-1.1,0.9
		c-1.2,0.9-2.3,1.8-3.5,2.7c-1.2,0.9-2.3,1.7-3.5,2.5c-1.1,0.8-2.3,1.5-3.3,2c-1.1,0.6-2.1,1-3.1,1.4c-1,0.3-1.8,0.5-2.6,0.5
		c-0.8,0-1.5-0.2-2.1-0.7c0,0,0-0.1,0-0.2c0-0.1,0-0.1,0-0.1c0-0.1,0.1-0.1,0.2-0.1c0.1,0,0.1,0,0.2,0.1c0.8,0.6,1.7,0.8,3,0.5
		c1.2-0.3,2.6-0.8,4.2-1.6c1.5-0.8,3.2-1.9,4.9-3.2c1.8-1.3,3.6-2.6,5.4-4.1c0.1-0.1,0.1-0.1,0.2-0.2c0.1-0.1,0.2-0.1,0.3-0.2h-0.4
		c-1.8,0.2-3.6,0.4-5.4,0.5c-1.7,0.1-3.3,0.3-4.7,0.5c-0.7,0.1-1.3,0.3-1.9,0.4c-0.6,0.1-1.1,0.2-1.5,0.3C6.9,20.9,6.7,21,6.6,21
		c-0.1,0-0.3,0.1-0.4,0.2c-0.2,0.1-0.4,0.1-0.4,0.2C5.8,21.5,5.7,21.6,5.5,21.6z M39.4,6.9c-0.1-0.2-0.5-0.2-1,0
		C38,7,37.4,7.3,36.7,7.6C36,8,35.3,8.5,34.5,9c-0.8,0.5-1.5,1-2.3,1.6c-0.6,0.4-1.3,1-2.1,1.6s-1.6,1.3-2.5,2
		c-0.9,0.7-1.7,1.5-2.6,2.2c-0.9,0.8-1.8,1.5-2.6,2.2l8.2-0.8h0.1c1-1.2,2-2.3,3.1-3.5c1.1-1.2,2.1-2.3,2.9-3.3c0.9-1,1.5-1.9,2-2.6
		C39.4,7.6,39.6,7.1,39.4,6.9z"/>
	<path d="M36.8,23.7c0.1-0.1,0.2-0.3,0.5-0.5c0.3-0.2,0.4-0.4,0.5-0.6c0.1-0.2,0.2-0.4,0.2-0.6c-0.2,0.2-0.5,0.3-0.7,0.4
		c-0.2,0.1-0.4,0.2-0.6,0.4c-0.1,0.1-0.2,0-0.3-0.1c-0.1-0.1,0-0.2,0.1-0.3c0.1-0.1,0.3-0.2,0.5-0.3c0.2-0.1,0.3-0.2,0.5-0.3
		c0.1-0.1,0.3-0.2,0.4-0.3c0.1-0.1,0.2-0.2,0.2-0.2v-0.1c0-0.1,0.1-0.2,0.2-0.2c0.1,0,0.2,0.1,0.2,0.2c0.1,0.3,0.1,0.5,0.1,0.7
		s-0.1,0.4-0.1,0.5c0.7-0.4,1.3-0.7,1.8-1c0.5-0.3,0.9-0.3,1.3-0.1c0.1,0.1,0.2,0.2,0.2,0.3c0,0.1,0,0.3-0.1,0.4
		c-0.1,0.3-0.2,0.5-0.3,0.8s-0.2,0.4-0.2,0.6s0,0.3,0.1,0.4c0.1,0.1,0.3,0.1,0.5,0c0.6-0.1,1.3-0.4,2.1-0.7c0.8-0.4,1.6-0.8,2.3-1.3
		c0.2-0.1,0.3-0.1,0.4,0.1c0.1,0.1,0,0.2-0.1,0.3c-0.8,0.5-1.6,1-2.4,1.4c-0.8,0.4-1.6,0.6-2.4,0.8c-0.5,0.1-0.8,0-0.9-0.2
		c-0.1-0.2-0.2-0.4-0.1-0.7c0-0.3,0.1-0.6,0.3-0.9c0.1-0.3,0.2-0.6,0.3-0.8c0-0.1-0.2-0.2-0.5-0.1c-0.3,0.1-0.6,0.2-1,0.4
		c-0.4,0.2-0.7,0.4-1.1,0.7s-0.6,0.4-0.8,0.6c-0.1,0.1-0.2,0.3-0.4,0.4c-0.1,0.1-0.2,0.2-0.3,0.3c-0.1,0-0.2,0-0.3,0
		C36.7,24,36.7,23.9,36.8,23.7z"/>
	<path d="M45.1,24.5c-0.3-0.2-0.4-0.4-0.3-0.8c0.1-0.3,0.2-0.7,0.5-1s0.6-0.6,1.1-0.8c0.4-0.2,0.8-0.4,1.3-0.4
		c0.3,0,0.5,0.1,0.7,0.2c0.2,0.1,0.3,0.2,0.3,0.4c0,0.1,0,0.1-0.1,0.2c-0.1,0.1-0.2,0.1-0.2,0c-0.1-0.1-0.2-0.1-0.2-0.2
		c0-0.1-0.2-0.1-0.5-0.1s-0.6,0.1-0.9,0.3c-0.3,0.2-0.6,0.4-0.9,0.7c-0.2,0.2-0.4,0.5-0.5,0.7s-0.1,0.4,0.1,0.5c0.2,0,0.5,0,0.8-0.2
		c0.3-0.2,0.7-0.3,1-0.6c0.4-0.2,0.7-0.5,1.1-0.7c0.3-0.3,0.6-0.5,0.9-0.7c0.1-0.1,0.3-0.1,0.4,0c0.1,0.1,0.1,0.2,0.1,0.3
		c-0.1,0.1-0.2,0.2-0.2,0.4c0,0.2,0,0.4,0.1,0.6c0.1,0.2,0.2,0.4,0.3,0.5c0.2,0.2,0.4,0.3,0.7,0.3c0.3,0,0.6,0,1-0.1
		c0.4-0.1,0.7-0.2,1.1-0.4c0.4-0.2,0.7-0.4,1-0.7c0.3-0.3,0.5-0.5,0.6-0.8c0-0.1,0.1-0.2,0.3-0.1c0.1,0.1,0.1,0.3,0,0.5
		c-0.1,0.2-0.3,0.4-0.6,0.7c-0.3,0.2-0.6,0.5-0.9,0.7c-0.3,0.2-0.7,0.4-1.1,0.5c-0.4,0.1-0.8,0.2-1.2,0.1c-0.4,0-0.8-0.2-1.1-0.5
		c-0.3-0.3-0.4-0.7-0.5-1.3c-0.3,0.3-0.6,0.5-1,0.8c-0.4,0.2-0.8,0.5-1.1,0.7s-0.7,0.3-1.1,0.4C45.4,24.6,45.2,24.6,45.1,24.5z"/>
	<path d="M63.8,28.5c-0.6-0.2-1.1-0.4-1.4-0.7c-0.3-0.3-0.6-0.7-0.7-1.2c-0.1-0.4-0.2-0.9-0.2-1.4s0.1-1,0.3-1.5
		c0.3-0.9,0.7-1.9,1.3-2.9c0.6-1,1.4-2.1,2.3-3.1c0.9-1,1.9-2.1,3-3.1c1.1-1,2.4-1.9,3.7-2.7c1.7-1,3.3-1.9,5-2.6
		c1.7-0.7,3.2-1.3,4.6-1.6s2.6-0.4,3.6-0.2c1,0.2,1.7,0.6,2.1,1.3c0.3,0.7,0.3,1.4,0.1,2.2c-0.3,0.8-0.8,1.5-1.5,2.3
		c-0.7,0.8-1.6,1.5-2.6,2.2c-1,0.7-2.1,1.4-3.2,2c-1,0.6-2.1,1.1-3.2,1.6c-1.1,0.5-2.2,0.9-3.2,1.1c-1,0.3-1.8,0.4-2.6,0.4
		c-0.7,0-1.2-0.3-1.3-0.8c-0.1-0.3-0.1-0.7,0.1-1.1c0.2-0.4,0.5-0.8,0.8-1.3c0.4-0.4,0.8-0.9,1.3-1.3c0.5-0.4,1-0.8,1.6-1.1
		s1.1-0.6,1.7-0.8c0.6-0.2,1.1-0.3,1.6-0.3c0.2,0.1,0.3,0.2,0.3,0.3c0,0.1-0.1,0.2-0.3,0.2c-0.7,0-1.5,0.2-2.3,0.6
		c-0.8,0.4-1.6,0.9-2.3,1.4c-0.7,0.6-1.3,1.1-1.7,1.7c-0.4,0.6-0.5,1-0.4,1.4c0.1,0.3,0.5,0.4,1,0.5s1.3-0.1,2.2-0.3
		c0.9-0.3,1.9-0.6,3-1c1.1-0.4,2.2-1,3.3-1.6c1.2-0.7,2.3-1.4,3.3-2.1c1-0.7,1.8-1.5,2.5-2.2c0.7-0.7,1.1-1.4,1.4-2.1s0.2-1.3,0-1.9
		c-0.3-0.5-0.9-0.9-1.8-1c-0.9-0.1-2-0.1-3.3,0.2s-2.8,0.8-4.4,1.4c-1.6,0.7-3.4,1.6-5.2,2.7c-1.2,0.8-2.4,1.6-3.4,2.5
		c-1,0.9-2,1.8-2.8,2.8c-0.8,0.9-1.6,1.9-2.2,2.8c-0.6,0.9-1.1,1.8-1.4,2.7c-0.2,0.5-0.4,1-0.5,1.5c-0.1,0.5-0.1,1-0.1,1.5
		c0.1,0.5,0.3,0.9,0.6,1.3c0.3,0.4,0.8,0.6,1.4,0.8c0.4,0.1,1.1,0.1,1.9-0.1c0.8-0.2,1.8-0.4,2.8-0.7c1-0.3,2.1-0.7,3.3-1.1
		s2.3-0.9,3.4-1.4c1.1-0.5,2.1-1,3.1-1.4c1-0.5,1.8-0.9,2.4-1.3c0.2-0.1,0.3-0.1,0.4,0c0.1,0.2,0,0.3-0.1,0.4
		c-0.4,0.3-1,0.6-1.9,1.1c-0.9,0.4-1.8,0.9-3,1.4c-1.1,0.5-2.3,1-3.6,1.5c-1.3,0.5-2.5,0.9-3.6,1.3c-1.2,0.4-2.2,0.7-3.2,0.8
		C65.1,28.6,64.3,28.6,63.8,28.5z"/>
	<path d="M82.5,24.4c-0.2-0.3-0.2-0.6,0-1c0.2-0.4,0.5-0.8,0.8-1.1v-0.1c-0.1-0.2-0.2-0.4-0.3-0.5c0-0.1-0.1-0.3-0.2-0.5
		c-0.6,0.4-1.1,0.8-1.5,1c-0.4,0.2-0.7,0.4-0.9,0.6c-0.2,0-0.3,0-0.3-0.1c0-0.1-0.1-0.1,0-0.2c0-0.1,0.1-0.1,0.1-0.2
		c0.1-0.1,0.2-0.2,0.4-0.3c0.1-0.1,0.3-0.2,0.5-0.3c0.2-0.1,0.4-0.3,0.7-0.5c0.3-0.2,0.6-0.4,1-0.7l0.1-0.2c0.1-0.4,0.2-0.7,0.5-1.1
		c0.3-0.3,0.6-0.6,1-0.9c0.4-0.2,0.7-0.4,1.1-0.6c0.4-0.1,0.7-0.2,0.9-0.2c0.2,0,0.2,0.1,0.2,0.4c0,0.2-0.2,0.5-0.5,0.7
		c-0.4,0.3-0.6,0.5-0.8,0.7c-0.2,0.2-0.5,0.4-1,0.7l-0.8,0.6c0,0.4,0.2,0.8,0.6,1.3c0.1,0.2,0.1,0.3,0,0.3c-0.2,0.2-0.4,0.4-0.7,0.7
		c-0.2,0.3-0.4,0.6-0.4,0.8c0,0.2,0.2,0.2,0.4,0.2c0.2,0,0.6-0.1,0.9-0.2c0.4-0.1,0.8-0.2,1.3-0.4s0.9-0.3,1.4-0.5
		c0.4-0.2,0.9-0.4,1.3-0.6s0.7-0.3,0.9-0.5c0.1-0.1,0.2-0.1,0.2-0.1s0.1,0.1,0.1,0.1c0,0,0.1,0.1,0,0.2c0,0.1-0.1,0.1-0.1,0.1
		c-0.3,0.2-0.8,0.4-1.4,0.8c-0.7,0.3-1.3,0.6-2.1,0.9c-0.7,0.3-1.4,0.5-2,0.5C83.1,24.7,82.7,24.6,82.5,24.4z M86.1,18.1
		c-0.5,0.1-1,0.3-1.5,0.7c-0.5,0.4-0.9,0.8-1.1,1.2c0.2-0.2,0.5-0.4,0.7-0.5c0.2-0.2,0.4-0.3,0.6-0.5c0.2-0.2,0.4-0.3,0.6-0.5
		C85.6,18.4,85.8,18.3,86.1,18.1z"/>
	<path d="M88.5,24c-0.1-0.2-0.2-0.4-0.1-0.7c0.1-0.3,0.2-0.5,0.4-0.7c-0.2,0.1-0.4,0.2-0.5,0.3c-0.1,0-0.2,0.1-0.4,0.2
		c-0.1,0.1-0.2,0-0.3-0.1c-0.1-0.1,0-0.2,0.1-0.3c0.3-0.1,0.5-0.2,0.7-0.3c0.2-0.1,0.3-0.2,0.4-0.3c0.1-0.1,0.2-0.2,0.4-0.3
		c0.1-0.1,0.3-0.2,0.6-0.4c0.1-0.1,0.3,0,0.3,0.1c0.1,0.1,0.1,0.2-0.1,0.3c-0.3,0.2-0.4,0.4-0.6,0.5c-0.1,0.2-0.2,0.3-0.4,0.5
		c-0.2,0.3-0.2,0.5-0.2,0.6c0.1,0.1,0.2,0.1,0.4,0.1c0.2,0,0.4,0,0.6-0.1c0.2-0.1,0.4-0.1,0.6-0.2c0.5-0.1,1-0.3,1.6-0.6
		c0.6-0.3,1.1-0.5,1.7-0.8C93.9,22,93.9,22,94,22c0,0,0.1,0,0.2,0.1c0.1,0.1,0,0.3-0.1,0.4c-0.2,0.1-0.6,0.3-1.1,0.6
		c-0.5,0.3-1.1,0.5-1.7,0.7c-0.6,0.2-1.1,0.4-1.7,0.4C89,24.3,88.7,24.3,88.5,24z M90.2,20.4c0,0-0.1-0.1-0.1-0.2
		c0-0.1,0.1-0.1,0.1-0.1c0.1-0.1,0.3-0.3,0.4-0.4c0.2-0.2,0.3-0.3,0.4-0.5c0.1-0.2,0.2-0.2,0.3-0.1c0.2,0.1,0.2,0.2,0.1,0.3
		c-0.3,0.5-0.6,0.9-1,1.1C90.4,20.6,90.3,20.6,90.2,20.4z"/>
	<path d="M90.5,28.8c-0.3-0.1-0.5-0.2-0.7-0.4c-0.2-0.2-0.2-0.5-0.2-0.8c0-0.4,0.2-0.7,0.6-0.9c0.3-0.3,0.7-0.5,1.2-0.7
		c0.5-0.2,1-0.4,1.5-0.6c0.6-0.2,1.1-0.3,1.5-0.5l0.6-0.1c0.1-0.3,0.3-0.6,0.3-0.9c0.1-0.3,0.2-0.5,0.2-0.8c0.1-0.3,0.1-0.6,0.2-0.9
		c0.1-0.3,0.2-0.7,0.3-1.1L96.1,21c-0.4,0.3-0.7,0.6-1.1,0.9c-0.4,0.3-0.9,0.6-1.5,1c-0.2,0.1-0.3,0.1-0.4-0.1c0,0-0.1-0.1,0-0.2
		c0-0.1,0.1-0.1,0.1-0.2c0.9-0.5,1.6-1,2.1-1.3c0.5-0.4,0.9-0.7,1.3-0.9c0-0.1,0.1-0.1,0.2-0.2c0.1,0,0.2-0.1,0.2-0.1s0.1,0,0.1,0.1
		c0,0.1,0,0.2-0.1,0.4c-0.3,0.8-0.5,1.6-0.6,2.2c-0.1,0.6-0.4,1.2-0.6,1.9h0.2c0.6-0.2,1.2-0.4,1.8-0.6c0.6-0.2,1.3-0.4,2-0.7
		c0.5-0.2,1.1-0.4,1.6-0.6s1-0.4,1.4-0.7c0,0,0-0.1,0.1-0.1c0.1,0,0.2,0,0.2,0.1c0.1,0,0.1,0.1,0,0.2c-0.1,0.1-0.1,0.1-0.2,0.1
		c-0.4,0.3-0.9,0.5-1.5,0.8s-1.1,0.4-1.6,0.6c-0.8,0.3-1.5,0.5-2.3,0.8c-0.8,0.2-1.4,0.4-2.1,0.7h-0.1c-0.3,0.7-0.7,1.3-1.1,1.8
		c-0.4,0.5-0.9,0.9-1.3,1.3c-0.5,0.3-0.9,0.6-1.4,0.7C91.2,28.8,90.8,28.9,90.5,28.8z M94.9,25.1c-0.5,0.2-1.1,0.4-1.6,0.5
		c-0.5,0.2-1,0.4-1.5,0.6s-0.8,0.4-1.1,0.7c-0.3,0.2-0.5,0.5-0.5,0.7c0,0.3,0,0.5,0.2,0.6c0.2,0.1,0.3,0.2,0.3,0.2
		c0.3,0,0.6,0,0.9-0.1c0.4-0.1,0.7-0.3,1.1-0.6c0.4-0.3,0.8-0.6,1.1-1.1C94.2,26.1,94.6,25.6,94.9,25.1z"/>
	<path d="M101.7,18.6c0,0-0.2,0-0.3,0c-0.2,0-0.2,0-0.2-0.2c0-0.1,0.1-0.2,0.2-0.2c0,0,0.1,0,0.2,0c0.6-0.1,1.3-0.1,2.2-0.2
		c0.8,0,1.7-0.1,2.6-0.1c0.2-0.2,0.5-0.4,0.9-0.7c0.4-0.3,0.8-0.6,1.2-0.9c0.4-0.3,0.8-0.5,1.2-0.7c0.4-0.2,0.7-0.3,0.9-0.3
		c0.1,0,0.2,0,0.3,0.1c0.1,0.1,0.1,0.2,0.1,0.2c0,0.3-0.2,0.6-0.6,1c-0.4,0.4-0.8,0.8-1.4,1.3l2.8,0.2l0.2,0.1
		c0.1,0.1,0.2,0.2,0.1,0.3c0,0.1-0.1,0.1-0.3,0.1c-0.1,0-0.2,0-0.2,0c-0.5,0-1.1-0.1-1.6-0.1c-0.5,0-1,0-1.6,0
		c-0.8,0.7-1.6,1.3-2.4,1.9c-0.8,0.6-1.7,1.1-2.6,1.6c-0.2,0.2-0.3,0.4-0.5,0.8c-0.1,0.3-0.2,0.6-0.2,0.8c0,0.3,0.2,0.5,0.6,0.5
		c0.4,0.1,0.8,0.1,1.4,0c0.6-0.1,1.2-0.2,1.8-0.4c0.7-0.2,1.3-0.4,1.9-0.6c0.6-0.2,1.2-0.4,1.6-0.7c0.5-0.2,0.8-0.4,1-0.5
		c0.2-0.1,0.3-0.1,0.4,0c0.1,0.1,0,0.2-0.1,0.4c-0.3,0.2-0.8,0.5-1.5,0.8c-0.7,0.3-1.5,0.6-2.4,0.9c-0.8,0.3-1.7,0.5-2.5,0.6
		c-0.8,0.1-1.4,0.1-1.9,0c-0.3,0-0.5-0.1-0.6-0.3s-0.2-0.4-0.2-0.6c0-0.1,0-0.3,0.1-0.5c0-0.2,0.1-0.3,0.2-0.5l0.1-0.1l-0.6,0.3
		c0,0-0.1,0.1-0.2,0c-0.1,0-0.1-0.1-0.1-0.1c0-0.1,0-0.2,0.1-0.3l1.3-0.8c0.3-0.4,0.7-0.9,1.1-1.4c0.5-0.5,1-1.1,1.7-1.7
		c-0.8,0-1.5,0-2.2,0C102.9,18.5,102.3,18.5,101.7,18.6z M103.8,21.1c0.8-0.6,1.6-1.1,2.2-1.5c0.6-0.4,1.2-0.8,1.7-1.2h-1.2
		c-0.2,0.2-0.5,0.5-0.9,0.8C105.2,19.7,104.6,20.3,103.8,21.1z M110.1,16c-0.3,0.1-0.8,0.4-1.3,0.7c-0.5,0.3-1.1,0.7-1.8,1.3h1.3
		c0.4-0.4,0.8-0.7,1.2-1.1c0.4-0.4,0.7-0.7,0.9-1L110.1,16z"/>
	<path d="M109.9,24c-0.1-0.2-0.2-0.4-0.1-0.7c0.1-0.3,0.2-0.5,0.4-0.7c-0.2,0.1-0.4,0.2-0.5,0.3s-0.2,0.1-0.4,0.2s-0.2,0-0.3-0.1
		c-0.1-0.1,0-0.2,0.1-0.3c0.3-0.1,0.5-0.2,0.7-0.3c0.2-0.1,0.3-0.2,0.4-0.3c0.1-0.1,0.2-0.2,0.4-0.3c0.1-0.1,0.3-0.2,0.6-0.4
		c0.1-0.1,0.3,0,0.3,0.1c0.1,0.1,0.1,0.2-0.1,0.3c-0.3,0.2-0.4,0.4-0.6,0.5c-0.1,0.2-0.2,0.3-0.4,0.5c-0.2,0.3-0.2,0.5-0.2,0.6
		c0.1,0.1,0.2,0.1,0.4,0.1c0.2,0,0.4,0,0.6-0.1s0.4-0.1,0.6-0.2c0.5-0.1,1-0.3,1.6-0.6c0.6-0.3,1.1-0.5,1.7-0.8
		c0.1-0.1,0.1-0.1,0.2-0.1c0,0,0.1,0,0.2,0.1c0.1,0.1,0,0.3-0.1,0.4c-0.2,0.1-0.6,0.3-1.1,0.6s-1.1,0.5-1.7,0.7s-1.1,0.4-1.7,0.4
		C110.4,24.3,110,24.3,109.9,24z M111.6,20.4c0,0-0.1-0.1-0.1-0.2s0.1-0.1,0.1-0.1c0.1-0.1,0.3-0.3,0.4-0.4s0.3-0.3,0.4-0.5
		c0.1-0.2,0.2-0.2,0.3-0.1c0.2,0.1,0.2,0.2,0.1,0.3c-0.3,0.5-0.6,0.9-1,1.1C111.7,20.6,111.6,20.6,111.6,20.4z"/>
	<path d="M114.8,23.7c0.1-0.1,0.2-0.3,0.5-0.5c0.3-0.2,0.4-0.4,0.5-0.6c0.1-0.2,0.2-0.4,0.2-0.6c-0.2,0.2-0.5,0.3-0.7,0.4
		s-0.4,0.2-0.6,0.4c-0.1,0.1-0.2,0-0.3-0.1c-0.1-0.1,0-0.2,0.1-0.3c0.1-0.1,0.3-0.2,0.5-0.3c0.2-0.1,0.3-0.2,0.5-0.3
		c0.1-0.1,0.3-0.2,0.4-0.3c0.1-0.1,0.2-0.2,0.2-0.2v-0.1c0-0.1,0.1-0.2,0.2-0.2c0.1,0,0.2,0.1,0.2,0.2c0.1,0.3,0.1,0.5,0.1,0.7
		s-0.1,0.4-0.1,0.5c0.7-0.4,1.3-0.7,1.8-1c0.5-0.3,0.9-0.3,1.3-0.1c0.1,0.1,0.2,0.2,0.2,0.3c0,0.1,0,0.3-0.1,0.4
		c-0.1,0.3-0.2,0.5-0.3,0.8c-0.1,0.2-0.2,0.4-0.2,0.6c0,0.2,0,0.3,0.1,0.4c0.1,0.1,0.3,0.1,0.5,0c0.6-0.1,1.3-0.4,2.1-0.7
		c0.8-0.4,1.6-0.8,2.3-1.3c0.2-0.1,0.3-0.1,0.4,0.1c0.1,0.1,0,0.2-0.1,0.3c-0.8,0.5-1.6,1-2.4,1.4s-1.6,0.6-2.4,0.8
		c-0.5,0.1-0.8,0-0.9-0.2c-0.1-0.2-0.2-0.4-0.1-0.7c0-0.3,0.1-0.6,0.3-0.9c0.1-0.3,0.2-0.6,0.3-0.8c0-0.1-0.2-0.2-0.5-0.1
		c-0.3,0.1-0.6,0.2-1,0.4c-0.4,0.2-0.7,0.4-1.1,0.7c-0.4,0.2-0.6,0.4-0.8,0.6c-0.1,0.1-0.2,0.3-0.4,0.4s-0.2,0.2-0.3,0.3
		c-0.1,0-0.2,0-0.3,0C114.7,24,114.7,23.9,114.8,23.7z"/>
	<path d="M123.1,24.5c-0.3-0.2-0.4-0.4-0.3-0.8c0.1-0.3,0.2-0.7,0.5-1c0.3-0.3,0.6-0.6,1.1-0.8c0.4-0.2,0.8-0.4,1.3-0.4
		c0.3,0,0.5,0.1,0.7,0.2c0.2,0.1,0.3,0.2,0.3,0.4c0,0.1,0,0.1-0.1,0.2c-0.1,0.1-0.2,0.1-0.2,0c-0.1-0.1-0.2-0.1-0.2-0.2
		c0-0.1-0.2-0.1-0.5-0.1c-0.3,0-0.6,0.1-0.9,0.3c-0.3,0.2-0.6,0.4-0.9,0.7c-0.2,0.2-0.4,0.5-0.5,0.7c-0.1,0.2-0.1,0.4,0.1,0.5
		c0.2,0,0.5,0,0.8-0.2c0.3-0.2,0.7-0.3,1-0.6c0.4-0.2,0.7-0.5,1.1-0.7c0.3-0.3,0.6-0.5,0.9-0.7c0.1-0.1,0.3-0.1,0.4,0
		c0.1,0.1,0.1,0.2,0.1,0.3c-0.1,0.1-0.2,0.2-0.2,0.4s0,0.4,0.1,0.6c0.1,0.2,0.2,0.4,0.3,0.5c0.2,0.2,0.4,0.3,0.7,0.3
		c0.3,0,0.6,0,1-0.1c0.4-0.1,0.7-0.2,1.1-0.4s0.7-0.4,1-0.7c0.3-0.3,0.5-0.5,0.6-0.8c0-0.1,0.1-0.2,0.3-0.1c0.1,0.1,0.1,0.3,0,0.5
		c-0.1,0.2-0.3,0.4-0.6,0.7c-0.3,0.2-0.6,0.5-0.9,0.7c-0.3,0.2-0.7,0.4-1.1,0.5c-0.4,0.1-0.8,0.2-1.2,0.1c-0.4,0-0.8-0.2-1.1-0.5
		c-0.3-0.3-0.4-0.7-0.5-1.3c-0.3,0.3-0.6,0.5-1,0.8c-0.4,0.2-0.8,0.5-1.1,0.7s-0.7,0.3-1.1,0.4C123.5,24.6,123.2,24.6,123.1,24.5z"
		/>
	<path d="M140,31.2c-0.1-0.1-0.2-0.1-0.2-0.2c0-0.1,0-0.1,0.1-0.2c0.2-0.1,0.5-0.4,1-0.9c0.5-0.5,1.1-1.1,1.9-1.8l0.3-0.2l0.1-0.1
		c0.8-1,1.7-2.1,2.6-3.3c0.9-1.2,1.7-2.5,2.6-3.8c0.8-1.3,1.5-2.5,2.1-3.8s1.1-2.4,1.5-3.5c0.4-1.1,0.5-2,0.6-2.9s-0.2-1.5-0.6-2
		l-0.3-0.4l-0.4-0.1c-0.4-0.2-0.9-0.2-1.5-0.1c-0.6,0.1-1.2,0.3-1.9,0.7c-0.7,0.3-1.4,0.8-2.2,1.3c-0.7,0.5-1.5,1.1-2.2,1.7
		c-0.8,0.7-1.5,1.4-2.1,2.1c-0.6,0.7-1.2,1.5-1.6,2.2c-0.4,0.7-0.7,1.4-0.9,2c-0.2,0.6-0.2,1.2,0,1.6c0.1,0.2,0.3,0.3,0.6,0.4
		c0.3,0,0.7,0,1.1-0.1c0.4-0.1,0.9-0.4,1.5-0.7c0.5-0.3,1.1-0.7,1.6-1.3c0.5-0.5,1-1,1.4-1.6s0.7-1.1,1-1.6c0.2-0.5,0.4-0.9,0.4-1.3
		c0-0.4,0-0.7-0.2-0.9c-0.1-0.1,0-0.3,0.1-0.4c0.1-0.1,0.2-0.1,0.3,0.1c0.2,0.3,0.2,0.7,0.2,1.2c-0.1,0.5-0.3,1-0.5,1.6
		c-0.3,0.6-0.6,1.1-1,1.7c-0.4,0.6-0.9,1.1-1.3,1.5c-0.5,0.4-1,0.9-1.6,1.2c-0.6,0.4-1.1,0.6-1.7,0.8s-1,0.2-1.4,0.2
		c-0.4-0.1-0.7-0.3-0.9-0.7c-0.2-0.5-0.2-1.1,0-1.8c0.2-0.7,0.5-1.4,1-2.1c0.5-0.7,1-1.5,1.7-2.2c0.7-0.8,1.4-1.4,2.1-2.1
		c0.7-0.7,1.5-1.3,2.4-1.8c0.8-0.6,1.6-1,2.4-1.4c0.8-0.4,1.5-0.6,2.2-0.7c0.7-0.1,1.3,0,1.7,0.3h0.1c0.7,0.5,1,1.2,1.1,2.2
		c0.1,1-0.1,2-0.4,3.2c-0.4,1.2-0.9,2.5-1.6,3.8c-0.7,1.4-1.4,2.7-2.2,4c-0.5,0.7-0.9,1.3-1.3,2c-0.4,0.6-0.8,1.2-1.3,1.8l-0.3,0.4
		l0.7-0.6c1-1,2.1-2.1,3.3-3.2s2.3-2.2,3.4-3.4c1.5-1.5,3-2.9,4.5-4.3c1.4-1.4,2.8-2.6,4-3.6c0.5-0.4,1-0.8,1.5-1.2
		c0.5-0.4,0.9-0.7,1.3-0.9c0.4-0.2,0.7-0.3,1-0.3s0.4,0.2,0.5,0.5c0,0.1,0,0.2-0.1,0.3c-0.1,0-0.2,0-0.2,0c0,0-0.1-0.1-0.1-0.1
		c0-0.1,0-0.1-0.1-0.1c-0.1,0-0.2,0-0.3,0c-0.1,0-0.3,0.1-0.4,0.2c-0.4,0.2-0.8,0.5-1.3,0.8c-0.4,0.3-1,0.8-1.6,1.3
		c-1.2,1-2.5,2.1-3.9,3.5c-1.4,1.3-2.9,2.8-4.5,4.3c-0.9,0.8-1.7,1.7-2.6,2.6c-0.8,0.9-1.7,1.7-2.5,2.5c-0.8,0.8-1.6,1.6-2.3,2.3
		c-0.7,0.8-1.4,1.4-2,2l-0.6,0.5l-0.8,1c-0.5,0.6-1,1-1.4,1.4c-0.4,0.4-0.8,0.6-1.1,0.6H140z"/>
	<path d="M153.6,24c-0.1-0.2-0.2-0.4-0.1-0.7c0.1-0.3,0.2-0.5,0.4-0.7c-0.2,0.1-0.4,0.2-0.5,0.3s-0.2,0.1-0.4,0.2s-0.2,0-0.3-0.1
		c-0.1-0.1,0-0.2,0.1-0.3c0.3-0.1,0.5-0.2,0.7-0.3c0.2-0.1,0.3-0.2,0.4-0.3c0.1-0.1,0.2-0.2,0.4-0.3c0.1-0.1,0.3-0.2,0.6-0.4
		c0.1-0.1,0.3,0,0.3,0.1c0.1,0.1,0.1,0.2-0.1,0.3c-0.3,0.2-0.4,0.4-0.6,0.5c-0.1,0.2-0.2,0.3-0.4,0.5c-0.2,0.3-0.2,0.5-0.2,0.6
		c0.1,0.1,0.2,0.1,0.4,0.1c0.2,0,0.4,0,0.6-0.1s0.4-0.1,0.6-0.2c0.5-0.1,1-0.3,1.6-0.6c0.6-0.3,1.1-0.5,1.7-0.8
		C159,22,159,22,159.1,22c0,0,0.1,0,0.2,0.1c0.1,0.1,0,0.3-0.1,0.4c-0.2,0.1-0.6,0.3-1.1,0.6s-1.1,0.5-1.7,0.7s-1.1,0.4-1.7,0.4
		C154.1,24.3,153.8,24.3,153.6,24z M155.3,20.4c0,0-0.1-0.1-0.1-0.2s0.1-0.1,0.1-0.1c0.1-0.1,0.3-0.3,0.4-0.4s0.3-0.3,0.4-0.5
		c0.1-0.2,0.2-0.2,0.3-0.1c0.2,0.1,0.2,0.2,0.1,0.3c-0.3,0.5-0.6,0.9-1,1.1C155.5,20.6,155.4,20.6,155.3,20.4z"/>
	<path d="M159.1,24.4c-0.2,0-0.4-0.1-0.6-0.3s-0.3-0.4-0.3-0.6c0-0.1,0-0.3,0.1-0.5c0.1-0.2,0.1-0.3,0.2-0.5l0.1-0.1v-0.1
		c-0.1-0.1-0.1-0.2,0.1-0.3l0.3-0.1l0.2-0.4c0.5-0.7,1.2-1.4,2-2.3s1.7-1.7,2.6-2.5c0.9-0.8,1.8-1.5,2.7-2.1c0.9-0.6,1.7-1,2.3-1.3
		h0.2c0.2,0,0.4,0.1,0.4,0.3c0,0.3-0.2,0.6-0.6,1c-0.4,0.4-0.8,0.9-1.4,1.4c-0.3,0.3-0.8,0.6-1.4,1.1c-0.6,0.5-1.3,1-2,1.6
		s-1.4,1.1-2.2,1.7s-1.4,1-1.9,1.3l-0.6,0.4l-0.1,0.1c-0.1,0.2-0.3,0.4-0.4,0.6c-0.1,0.2-0.1,0.4-0.1,0.6c0,0.4,0.3,0.6,0.8,0.6
		s1.1,0,1.8-0.2c0.7-0.2,1.4-0.4,2.2-0.7c0.8-0.3,1.4-0.6,1.9-0.8h0.1c0.5-0.7,1.1-1.3,1.7-2.1c0.7-0.7,1.3-1.4,2-2
		c0.7-0.6,1.4-1.2,2.2-1.7c0.7-0.5,1.4-0.8,2-1c0,0,0-0.1,0.1-0.1c0,0,0.1,0,0.1,0c0.2,0,0.4,0.1,0.4,0.4c0,0.2-0.2,0.5-0.6,0.9
		c-0.4,0.4-0.8,0.9-1.4,1.4c-0.3,0.3-0.7,0.6-1.1,0.9c-0.4,0.4-0.9,0.7-1.4,1.1c-0.5,0.4-1,0.8-1.6,1.2s-1.1,0.8-1.7,1.1l-0.6,0.4
		l-0.1,0.1c-0.1,0.2-0.3,0.4-0.4,0.7c-0.1,0.2-0.1,0.4-0.1,0.5c0,0.3,0.2,0.4,0.6,0.5s0.9,0,1.4-0.2c0.6-0.1,1.2-0.3,1.9-0.6
		c0.7-0.2,1.3-0.5,1.9-0.8c0.6-0.3,1.2-0.5,1.7-0.8c0.5-0.2,0.8-0.4,1-0.6c0.2-0.1,0.3-0.1,0.4,0c0.1,0.1,0,0.2-0.1,0.4
		c-0.2,0.2-0.5,0.4-0.9,0.6c-0.4,0.2-0.9,0.5-1.4,0.7c-0.5,0.2-1.1,0.5-1.7,0.7c-0.6,0.2-1.2,0.4-1.7,0.6s-1.1,0.3-1.6,0.4
		c-0.5,0.1-0.9,0.1-1.2,0c-0.2,0-0.4-0.1-0.6-0.3s-0.3-0.4-0.3-0.6c0-0.1,0-0.3,0.1-0.5c0.1-0.2,0.1-0.3,0.2-0.5l0.1-0.1
		c-0.5,0.2-1,0.4-1.5,0.5c-0.5,0.2-1.1,0.3-1.6,0.4s-1,0.2-1.5,0.2S159.5,24.5,159.1,24.4z M167.1,15.7c0.4-0.3,0.6-0.5,0.9-0.8
		c0.2-0.2,0.4-0.4,0.6-0.7l0.2-0.2l0.1-0.2l-0.2,0.1c-0.8,0.4-1.7,0.9-2.5,1.5c-0.8,0.6-1.7,1.3-2.4,2c-0.8,0.7-1.5,1.4-2.1,2
		c-0.6,0.7-1.2,1.2-1.6,1.7l0.5-0.4c0.4-0.3,1-0.7,1.6-1.1c0.6-0.5,1.3-1,1.9-1.5c0.6-0.5,1.2-1,1.8-1.4
		C166.4,16.2,166.8,15.9,167.1,15.7z M171.6,17.9c0.4-0.3,0.6-0.5,0.9-0.8c0.2-0.2,0.4-0.4,0.6-0.7l0.2-0.2l0.1-0.2l-0.2,0.1
		c-0.8,0.4-1.6,0.8-2.2,1.2c-0.7,0.5-1.3,1-1.8,1.5c-0.6,0.5-1.1,1-1.5,1.6c-0.5,0.5-0.9,1-1.3,1.4l0.4-0.3c0.4-0.3,0.9-0.6,1.3-0.9
		c0.5-0.3,0.9-0.7,1.3-1c0.4-0.4,0.8-0.7,1.2-1C171.1,18.3,171.4,18.1,171.6,17.9z"/>
	<path d="M172.4,24.5c-0.3-0.2-0.4-0.4-0.3-0.8c0.1-0.3,0.2-0.7,0.5-1c0.3-0.3,0.6-0.6,1.1-0.8c0.4-0.2,0.8-0.4,1.3-0.4
		c0.3,0,0.5,0.1,0.8,0.2c0.2,0.1,0.4,0.2,0.4,0.4c0,0.1,0,0.1-0.1,0.2c-0.1,0.1-0.2,0.1-0.2,0c-0.1-0.1-0.2-0.1-0.3-0.2
		c-0.1-0.1-0.3-0.1-0.6-0.1c-0.3,0-0.6,0.1-0.9,0.3c-0.3,0.2-0.6,0.4-0.9,0.7c-0.2,0.2-0.4,0.5-0.5,0.7c-0.1,0.2-0.1,0.4,0.1,0.5
		c0.2,0,0.5,0,0.8-0.2c0.4-0.2,0.7-0.3,1.1-0.6c0.4-0.2,0.8-0.5,1.1-0.7c0.4-0.3,0.7-0.5,0.9-0.7c0.2-0.2,0.4-0.2,0.5-0.1
		c0.1,0.1,0.1,0.3-0.1,0.4c-0.3,0.2-0.5,0.5-0.6,0.8c-0.1,0.3-0.1,0.5,0.1,0.6c0.2,0.1,0.4,0,0.8-0.1s0.8-0.3,1.2-0.5
		s0.8-0.4,1.1-0.6s0.6-0.4,0.7-0.4c0.1-0.1,0.3,0,0.3,0.1c0.1,0.1,0.1,0.2-0.1,0.3c-0.2,0.1-0.4,0.3-0.8,0.5
		c-0.4,0.2-0.7,0.4-1.1,0.7s-0.8,0.4-1.2,0.5c-0.4,0.1-0.7,0.2-1,0.1c-0.3-0.1-0.4-0.2-0.5-0.5c-0.1-0.2,0-0.5,0.1-0.7
		c-0.3,0.2-0.6,0.4-0.9,0.6c-0.4,0.2-0.7,0.4-1.1,0.6c-0.4,0.2-0.7,0.3-1,0.4C172.8,24.6,172.6,24.6,172.4,24.5z"/>
	<path d="M177.1,27.2c-0.1,0-0.1,0-0.1-0.1c0-0.1,0-0.1,0.1-0.2c0.1-0.1,0.2-0.2,0.4-0.1c0.2,0.2,0.5,0.3,0.9,0.3
		c0.4,0,0.8,0,1.1-0.1c0.2-0.1,0.4-0.1,0.5-0.2c0.1-0.1,0.2-0.1,0.4-0.2c0.1-0.2,0-0.4-0.1-0.6c0-0.1-0.1-0.2-0.2-0.2
		c-0.1,0-0.2,0-0.2,0.1c-0.1,0.1-0.2,0.1-0.4,0c-0.1-0.1-0.1-0.2,0-0.3c0.1-0.2,0.1-0.4,0.1-0.5c0-0.2,0.1-0.3,0.2-0.5h-0.1
		c-0.4-0.1-0.6-0.3-0.7-0.6c0-0.3,0-0.6,0.2-1s0.5-0.7,0.7-1c0.1-0.1,0.3-0.2,0.5-0.4c0.2-0.1,0.4-0.3,0.7-0.4
		c0.2-0.1,0.5-0.2,0.7-0.2c0.2,0,0.5,0,0.7,0c0.1,0.1,0.2,0.2,0.2,0.3c0,0.1-0.1,0.3-0.2,0.4c-0.1,0.1-0.2,0.3-0.4,0.4
		c-0.2,0.1-0.3,0.2-0.4,0.2c0,0-0.1,0.1-0.1,0.1s-0.1-0.1-0.1-0.1c-0.1-0.1-0.1-0.2,0-0.4c0.1-0.1,0.3-0.1,0.4-0.2
		c0.1-0.1,0.3-0.2,0.4-0.3c-0.1-0.1-0.4,0-0.8,0.1c-0.4,0.2-0.7,0.4-0.9,0.6c-0.4,0.3-0.7,0.6-0.8,0.8c-0.1,0.1-0.2,0.3-0.2,0.4
		s0,0.2,0,0.3c0,0.1,0.1,0.1,0.3,0.1c0.3,0.1,0.7,0.1,1.1,0c0.6-0.1,1.3-0.4,2.2-0.8s1.9-0.9,3.1-1.6c0,0,0.1-0.1,0.2,0
		c0.1,0,0.1,0.1,0.2,0.1c0,0.2,0,0.3-0.1,0.3c-1.2,0.7-2.3,1.2-3.2,1.6c-0.9,0.4-1.7,0.6-2.2,0.8c-0.2,0-0.3,0.1-0.5,0.1
		c-0.1,0-0.2,0-0.4,0v0.1l-0.1,0.5v0.1c0.3,0.1,0.4,0.2,0.6,0.3v0.1h0.1l0.1,0.1c0.1,0.2,0.1,0.4,0.1,0.6c0,0.2-0.1,0.3-0.2,0.5
		c-0.1,0.1-0.2,0.3-0.4,0.4c-0.2,0.1-0.4,0.2-0.5,0.2c-0.4,0.1-0.8,0.2-1.3,0.2C177.9,27.6,177.5,27.5,177.1,27.2z"/>
	<path d="M184.6,24.5c-0.3-0.2-0.4-0.4-0.3-0.8c0.1-0.3,0.2-0.7,0.5-1c0.3-0.3,0.6-0.6,1.1-0.8c0.4-0.2,0.8-0.4,1.3-0.4
		c0.3,0,0.5,0.1,0.7,0.2c0.2,0.1,0.3,0.2,0.3,0.4c0,0.1,0,0.1-0.1,0.2c-0.1,0.1-0.2,0.1-0.2,0c-0.1-0.1-0.2-0.1-0.2-0.2
		c0-0.1-0.2-0.1-0.5-0.1c-0.3,0-0.6,0.1-0.9,0.3c-0.3,0.2-0.6,0.4-0.9,0.7c-0.2,0.2-0.4,0.5-0.5,0.7c-0.1,0.2-0.1,0.4,0.1,0.5
		c0.2,0,0.5,0,0.8-0.2c0.3-0.2,0.7-0.3,1-0.6c0.4-0.2,0.7-0.5,1.1-0.7c0.3-0.3,0.6-0.5,0.9-0.7c0.1-0.1,0.3-0.1,0.4,0
		c0.1,0.1,0.1,0.2,0.1,0.3c-0.1,0.1-0.2,0.2-0.2,0.4s0,0.4,0.1,0.6c0.1,0.2,0.2,0.4,0.3,0.5c0.2,0.2,0.4,0.3,0.7,0.3
		c0.3,0,0.6,0,1-0.1c0.4-0.1,0.7-0.2,1.1-0.4s0.7-0.4,1-0.7c0.3-0.3,0.5-0.5,0.6-0.8c0-0.1,0.1-0.2,0.3-0.1c0.1,0.1,0.1,0.3,0,0.5
		c-0.1,0.2-0.3,0.4-0.6,0.7c-0.3,0.2-0.6,0.5-0.9,0.7c-0.3,0.2-0.7,0.4-1.1,0.5c-0.4,0.1-0.8,0.2-1.2,0.1c-0.4,0-0.8-0.2-1.1-0.5
		c-0.3-0.3-0.4-0.7-0.5-1.3c-0.3,0.3-0.6,0.5-1,0.8c-0.4,0.2-0.8,0.5-1.1,0.7s-0.7,0.3-1.1,0.4C185,24.6,184.8,24.6,184.6,24.5z"/>
</g>
<g>
	<path d="M34.1,32.6c0.5,0.3,0.8,0.6,1.1,1c0.3,0.4,0.4,0.9,0.4,1.5c0,0.5-0.1,1-0.4,1.5c-0.3,0.4-0.6,0.8-1.1,1
		c-0.5,0.3-1,0.4-1.5,0.4h-2.3v-5.8h2.3C33.1,32.2,33.7,32.4,34.1,32.6z M33.7,37c0.3-0.2,0.6-0.4,0.8-0.8c0.2-0.3,0.3-0.7,0.3-1.1
		c0-0.4-0.1-0.8-0.3-1.1c-0.2-0.3-0.5-0.6-0.8-0.8C33.3,33.1,33,33,32.6,33H31v4.3h1.6C33,37.3,33.4,37.2,33.7,37z"/>
	<path d="M38.5,32.1c0.1,0.1,0.1,0.2,0.1,0.4c0,0.1,0,0.3-0.1,0.4c-0.1,0.1-0.2,0.1-0.3,0.1c-0.1,0-0.3,0-0.3-0.1
		c-0.1-0.1-0.1-0.2-0.1-0.4c0-0.1,0-0.3,0.1-0.4c0.1-0.1,0.2-0.1,0.3-0.1C38.3,31.9,38.4,32,38.5,32.1z M37.8,33.6h0.8V38h-0.8V33.6
		z"/>
	<path d="M42.6,33.9c0.3-0.2,0.6-0.2,0.9-0.3v0.7c-0.4,0-0.8,0.1-1.1,0.3c-0.3,0.2-0.4,0.6-0.5,1V38h-0.8v-4.4h0.8v0.9
		C42.1,34.3,42.3,34,42.6,33.9z"/>
	<path d="M48.8,34.2c0.3,0.4,0.5,1,0.5,1.7c0,0.1,0,0.2,0,0.2h-3.4c0.1,0.4,0.2,0.7,0.5,0.9s0.6,0.3,1,0.3c0.3,0,0.5,0,0.7-0.1
		c0.2-0.1,0.4-0.2,0.6-0.4l0.4,0.4c-0.2,0.2-0.5,0.4-0.8,0.5c-0.3,0.1-0.6,0.2-1,0.2c-0.4,0-0.8-0.1-1.1-0.3
		c-0.3-0.2-0.6-0.4-0.8-0.8c-0.2-0.3-0.3-0.7-0.3-1.1c0-0.4,0.1-0.8,0.3-1.1c0.2-0.3,0.4-0.6,0.8-0.8c0.3-0.2,0.7-0.3,1.1-0.3
		C47.9,33.6,48.4,33.8,48.8,34.2z M48.6,35.5c0-0.4-0.2-0.7-0.4-0.9c-0.2-0.2-0.6-0.3-1-0.3c-0.4,0-0.7,0.1-1,0.3
		c-0.3,0.2-0.4,0.5-0.5,0.9H48.6z"/>
	<path d="M53.8,37.7c-0.3,0.2-0.7,0.3-1,0.3c-0.3,0-0.6-0.1-0.8-0.3c-0.2-0.2-0.3-0.5-0.3-0.9v-2.4H51v-0.6h0.6v-1.2h0.8v1.2h1.3
		v0.6h-1.3v2.3c0,0.2,0,0.4,0.1,0.5c0.1,0.1,0.2,0.2,0.4,0.2c0.2,0,0.4-0.1,0.7-0.2L53.8,37.7z"/>
	<path d="M58.8,33.9c0.3,0.2,0.6,0.4,0.8,0.8s0.3,0.7,0.3,1.1s-0.1,0.8-0.3,1.1c-0.2,0.3-0.5,0.6-0.8,0.8c-0.3,0.2-0.7,0.3-1.2,0.3
		c-0.4,0-0.8-0.1-1.2-0.3c-0.3-0.2-0.6-0.4-0.8-0.8c-0.2-0.3-0.3-0.7-0.3-1.1c0-0.4,0.1-0.8,0.3-1.1c0.2-0.3,0.5-0.6,0.8-0.8
		c0.3-0.2,0.7-0.3,1.2-0.3C58.1,33.6,58.5,33.7,58.8,33.9z M56.9,34.5c-0.2,0.1-0.4,0.3-0.5,0.5c-0.1,0.2-0.2,0.5-0.2,0.8
		c0,0.3,0.1,0.6,0.2,0.8c0.1,0.2,0.3,0.4,0.5,0.5c0.2,0.1,0.5,0.2,0.8,0.2c0.3,0,0.5-0.1,0.8-0.2c0.2-0.1,0.4-0.3,0.5-0.5
		c0.1-0.2,0.2-0.5,0.2-0.8c0-0.3-0.1-0.6-0.2-0.8c-0.1-0.2-0.3-0.4-0.5-0.5c-0.2-0.1-0.5-0.2-0.8-0.2C57.4,34.3,57.1,34.4,56.9,34.5
		z"/>
	<path d="M63.5,33.9c0.3-0.2,0.6-0.2,0.9-0.3v0.7c-0.4,0-0.8,0.1-1.1,0.3c-0.3,0.2-0.4,0.6-0.5,1V38h-0.8v-4.4h0.8v0.9
		C63,34.3,63.2,34,63.5,33.9z"/>
	<path d="M68.9,38v-0.6C68.6,37.8,68,38,67.4,38c-0.3,0-0.6-0.1-0.8-0.2c-0.2-0.1-0.4-0.3-0.5-0.5c-0.1-0.2-0.2-0.4-0.2-0.7
		c0-0.4,0.1-0.7,0.4-0.9c0.3-0.2,0.7-0.3,1.2-0.4h1.4v-0.2c0-0.3-0.1-0.5-0.3-0.7c-0.2-0.2-0.5-0.3-0.8-0.3c-0.4,0-0.9,0.2-1.3,0.5
		l-0.3-0.5c0.3-0.2,0.6-0.3,0.9-0.4c0.3-0.1,0.6-0.1,1-0.1c0.5,0,1,0.1,1.3,0.4c0.3,0.3,0.4,0.6,0.5,1.1l0,2.9H68.9z M68.4,37.1
		c0.2-0.2,0.4-0.4,0.4-0.7V36h-1.3c-0.3,0-0.6,0.1-0.8,0.2c-0.2,0.1-0.3,0.3-0.3,0.5c0,0.2,0.1,0.4,0.3,0.5c0.2,0.1,0.4,0.2,0.7,0.2
		C67.9,37.4,68.2,37.3,68.4,37.1z"/>
	<path d="M79,33.1c-0.3-0.1-0.6-0.2-0.9-0.2c-0.4,0-0.8,0.1-1.1,0.3c-0.3,0.2-0.6,0.5-0.8,0.8c-0.2,0.3-0.3,0.7-0.3,1.1
		c0,0.4,0.1,0.8,0.3,1.1c0.2,0.3,0.5,0.6,0.8,0.8c0.3,0.2,0.7,0.3,1.1,0.3c0.3,0,0.6-0.1,0.9-0.2c0.3-0.1,0.5-0.3,0.8-0.5l0.5,0.5
		c-0.3,0.3-0.6,0.5-1,0.7c-0.4,0.2-0.8,0.2-1.2,0.2c-0.5,0-1.1-0.1-1.5-0.4c-0.5-0.3-0.8-0.6-1.1-1.1c-0.3-0.4-0.4-0.9-0.4-1.5
		c0-0.5,0.1-1,0.4-1.5c0.3-0.4,0.6-0.8,1.1-1.1c0.5-0.3,1-0.4,1.5-0.4c0.4,0,0.8,0.1,1.2,0.2c0.4,0.2,0.7,0.4,1,0.6l-0.5,0.6
		C79.5,33.4,79.2,33.2,79,33.1z"/>
	<path d="M85.2,33.9c0.3,0.2,0.6,0.4,0.8,0.8c0.2,0.3,0.3,0.7,0.3,1.1S86.2,36.6,86,37c-0.2,0.3-0.5,0.6-0.8,0.8
		c-0.3,0.2-0.7,0.3-1.2,0.3c-0.4,0-0.8-0.1-1.2-0.3c-0.3-0.2-0.6-0.4-0.8-0.8c-0.2-0.3-0.3-0.7-0.3-1.1c0-0.4,0.1-0.8,0.3-1.1
		c0.2-0.3,0.5-0.6,0.8-0.8c0.3-0.2,0.7-0.3,1.2-0.3C84.5,33.6,84.9,33.7,85.2,33.9z M83.3,34.5c-0.2,0.1-0.4,0.3-0.5,0.5
		c-0.1,0.2-0.2,0.5-0.2,0.8c0,0.3,0.1,0.6,0.2,0.8c0.1,0.2,0.3,0.4,0.5,0.5c0.2,0.1,0.5,0.2,0.8,0.2c0.3,0,0.5-0.1,0.8-0.2
		c0.2-0.1,0.4-0.3,0.5-0.5c0.1-0.2,0.2-0.5,0.2-0.8c0-0.3-0.1-0.6-0.2-0.8c-0.1-0.2-0.3-0.4-0.5-0.5c-0.2-0.1-0.5-0.2-0.8-0.2
		C83.8,34.3,83.5,34.4,83.3,34.5z"/>
	<path d="M95.3,34.1c0.3,0.3,0.4,0.7,0.4,1.2V38H95v-2.5c0-0.4-0.1-0.7-0.3-0.9c-0.2-0.2-0.5-0.3-0.8-0.3c-0.4,0-0.7,0.2-1,0.4
		c-0.2,0.3-0.4,0.6-0.4,1.1V38h-0.8v-2.5c0-0.4-0.1-0.7-0.3-0.9c-0.2-0.2-0.5-0.3-0.8-0.3c-0.4,0-0.7,0.2-1,0.4
		c-0.2,0.3-0.4,0.6-0.4,1.1V38h-0.8v-4.4h0.8v0.9c0.3-0.6,0.8-0.9,1.6-0.9c0.4,0,0.7,0.1,1,0.3c0.3,0.2,0.4,0.5,0.5,0.8
		c0.3-0.7,0.8-1.1,1.7-1.1C94.6,33.6,95,33.8,95.3,34.1z"/>
	<path d="M101.5,34.2c0.3,0.4,0.5,1,0.5,1.7c0,0.1,0,0.2,0,0.2h-3.4c0.1,0.4,0.2,0.7,0.5,0.9c0.3,0.2,0.6,0.3,1,0.3
		c0.3,0,0.5,0,0.7-0.1c0.2-0.1,0.4-0.2,0.6-0.4l0.4,0.4c-0.2,0.2-0.5,0.4-0.8,0.5c-0.3,0.1-0.6,0.2-1,0.2c-0.4,0-0.8-0.1-1.1-0.3
		c-0.3-0.2-0.6-0.4-0.8-0.8c-0.2-0.3-0.3-0.7-0.3-1.1c0-0.4,0.1-0.8,0.3-1.1c0.2-0.3,0.4-0.6,0.8-0.8c0.3-0.2,0.7-0.3,1.1-0.3
		C100.7,33.6,101.2,33.8,101.5,34.2z M101.4,35.5c0-0.4-0.2-0.7-0.4-0.9c-0.2-0.2-0.6-0.3-1-0.3c-0.4,0-0.7,0.1-1,0.3
		s-0.4,0.5-0.5,0.9H101.4z"/>
	<path d="M105.6,33.9c0.3-0.2,0.6-0.2,0.9-0.3v0.7c-0.4,0-0.8,0.1-1.1,0.3c-0.3,0.2-0.4,0.6-0.5,1V38h-0.8v-4.4h0.8v0.9
		C105.2,34.3,105.4,34,105.6,33.9z"/>
	<path d="M110.4,34.3c-0.3,0-0.5,0.1-0.8,0.2c-0.2,0.1-0.4,0.3-0.5,0.5c-0.1,0.2-0.2,0.5-0.2,0.8c0,0.3,0.1,0.6,0.2,0.8
		c0.1,0.2,0.3,0.4,0.5,0.5c0.2,0.1,0.5,0.2,0.7,0.2c0.3,0,0.5,0,0.8-0.1c0.2-0.1,0.4-0.2,0.6-0.4l0.4,0.4c-0.2,0.2-0.4,0.4-0.8,0.6
		c-0.3,0.1-0.6,0.2-1,0.2c-0.4,0-0.8-0.1-1.1-0.3c-0.3-0.2-0.6-0.4-0.8-0.8c-0.2-0.3-0.3-0.7-0.3-1.1c0-0.4,0.1-0.8,0.3-1.1
		c0.2-0.3,0.4-0.6,0.8-0.8c0.3-0.2,0.7-0.3,1.1-0.3c0.4,0,0.7,0.1,1,0.2c0.3,0.1,0.5,0.3,0.7,0.5l-0.4,0.5
		C111.3,34.5,110.9,34.3,110.4,34.3z"/>
	<path d="M115.1,32.1c0.1,0.1,0.1,0.2,0.1,0.4c0,0.1,0,0.3-0.1,0.4c-0.1,0.1-0.2,0.1-0.3,0.1c-0.1,0-0.3,0-0.3-0.1
		c-0.1-0.1-0.1-0.2-0.1-0.4c0-0.1,0-0.3,0.1-0.4c0.1-0.1,0.2-0.1,0.3-0.1C114.9,31.9,115,32,115.1,32.1z M114.3,33.6h0.8V38h-0.8
		V33.6z"/>
	<path d="M120.4,38v-0.6c-0.3,0.4-0.8,0.6-1.5,0.6c-0.3,0-0.6-0.1-0.8-0.2c-0.2-0.1-0.4-0.3-0.5-0.5c-0.1-0.2-0.2-0.4-0.2-0.7
		c0-0.4,0.1-0.7,0.4-0.9c0.3-0.2,0.7-0.3,1.2-0.4h1.4v-0.2c0-0.3-0.1-0.5-0.3-0.7c-0.2-0.2-0.5-0.3-0.8-0.3c-0.4,0-0.9,0.2-1.3,0.5
		l-0.3-0.5c0.3-0.2,0.6-0.3,0.9-0.4c0.3-0.1,0.6-0.1,1-0.1c0.5,0,1,0.1,1.3,0.4c0.3,0.3,0.4,0.6,0.5,1.1l0,2.9H120.4z M120,37.1
		c0.2-0.2,0.4-0.4,0.4-0.7V36h-1.3c-0.3,0-0.6,0.1-0.8,0.2c-0.2,0.1-0.3,0.3-0.3,0.5c0,0.2,0.1,0.4,0.3,0.5c0.2,0.1,0.4,0.2,0.7,0.2
		C119.4,37.4,119.7,37.3,120,37.1z"/>
	<path d="M123.7,31.9h0.8V38h-0.8V31.9z"/>
</g>
</svg>
