<?xml version="1.0" encoding="utf-8"?>
<!-- Generator: Adobe Illustrator 22.0.0, SVG Export Plug-In . SVG Version: 6.00 Build 0)  -->
<svg version="1.1" id="Layer_1" xmlns="http://www.w3.org/2000/svg" xmlns:xlink="http://www.w3.org/1999/xlink" x="0px" y="0px"
	 viewBox="0 0 32 32" style="enable-background:new 0 0 32 32;" xml:space="preserve">
<style type="text/css">
	.st0{fill:#B1874A;}
</style>
<g>
	<g>
		<path class="st0" d="M27.8,4.1H4.2C2,4.1,0.3,5.8,0.3,7.9v16.2c0,2.1,1.7,3.8,3.8,3.8h23.7c2.1,0,3.8-1.7,3.8-3.8V7.9
			C31.7,5.8,30,4.1,27.8,4.1L27.8,4.1z M29.9,24.1c0,1.1-0.9,2.1-2.1,2.1H4.2c-1.1,0-2.1-0.9-2.1-2.1V7.9c0-1.1,0.9-2.1,2.1-2.1
			h23.7c1.1,0,2.1,0.9,2.1,2.1L29.9,24.1L29.9,24.1z M29.9,24.1"/>
		<path class="st0" d="M20.1,15.8l7.7-6.9c0.4-0.3,0.4-0.9,0.1-1.2c-0.3-0.4-0.9-0.4-1.2-0.1L16,17.1L14,15.3c0,0,0,0,0,0
			c0,0-0.1-0.1-0.1-0.1L5.4,7.6C5,7.3,4.5,7.3,4.2,7.7C3.8,8.1,3.9,8.6,4.2,8.9l7.8,6.9l-7.7,7.2c-0.4,0.3-0.4,0.9,0,1.2
			c0.2,0.2,0.4,0.3,0.6,0.3c0.2,0,0.4-0.1,0.6-0.2l7.8-7.3l2.1,1.9c0.2,0.1,0.4,0.2,0.6,0.2c0.2,0,0.4-0.1,0.6-0.2l2.2-2l7.8,7.4
			c0.2,0.2,0.4,0.2,0.6,0.2c0.2,0,0.5-0.1,0.6-0.3c0.3-0.3,0.3-0.9,0-1.2L20.1,15.8z M20.1,15.8"/>
	</g>
</g>
</svg>
