<?xml version="1.0" encoding="utf-8"?>
<!-- Generator: Adobe Illustrator 22.0.0, SVG Export Plug-In . SVG Version: 6.00 Build 0)  -->
<svg version="1.1" id="Layer_1" xmlns="http://www.w3.org/2000/svg" xmlns:xlink="http://www.w3.org/1999/xlink" x="0px" y="0px"
	 viewBox="0 0 32 32" style="enable-background:new 0 0 32 32;" xml:space="preserve">
<style type="text/css">
	.st0{fill:#B1874A;}
</style>
<path class="st0" d="M25.3,18.6c-0.6-0.6-1.3-0.9-2.1-0.9c-0.8,0-1.5,0.3-2.1,0.9l-1.9,1.9c-0.2-0.1-0.3-0.2-0.5-0.2
	c-0.2-0.1-0.4-0.2-0.6-0.3c-1.8-1.2-3.5-2.7-5-4.6c-0.8-1-1.3-1.8-1.7-2.6c0.5-0.5,1-0.9,1.4-1.4c0.2-0.2,0.3-0.3,0.5-0.5
	c1.3-1.3,1.3-3,0-4.2L11.7,5c-0.2-0.2-0.4-0.4-0.6-0.6C10.8,4,10.4,3.6,10,3.2C9.4,2.6,8.7,2.3,7.9,2.3c-0.7,0-1.5,0.3-2.1,0.9l0,0
	L3.8,5.3C3,6.1,2.5,7.1,2.4,8.2c-0.1,1.8,0.4,3.5,0.8,4.5c1,2.7,2.5,5.2,4.7,7.8c2.7,3.2,5.9,5.7,9.6,7.5c1.4,0.7,3.3,1.5,5.4,1.6
	c0.1,0,0.3,0,0.4,0c1.4,0,2.6-0.5,3.5-1.5c0,0,0,0,0,0c0.3-0.4,0.7-0.7,1.1-1.1c0.3-0.3,0.5-0.5,0.8-0.8c0.6-0.6,0.9-1.4,0.9-2.1
	c0-0.8-0.3-1.5-0.9-2.1L25.3,18.6z M27.5,25.1C27.5,25.1,27.5,25.1,27.5,25.1c-0.2,0.3-0.5,0.5-0.7,0.7c-0.4,0.4-0.8,0.8-1.2,1.2
	c-0.6,0.7-1.3,1-2.3,1c-0.1,0-0.2,0-0.3,0c-1.8-0.1-3.5-0.8-4.8-1.4c-3.5-1.7-6.5-4.1-9-7.1c-2.1-2.5-3.5-4.8-4.4-7.3
	C4.2,10.6,4,9.4,4.1,8.3C4.1,7.6,4.4,7,4.9,6.5L7,4.4C7.3,4.1,7.6,4,7.9,4c0.4,0,0.7,0.2,0.9,0.4l0,0C9.2,4.8,9.6,5.1,10,5.5
	c0.2,0.2,0.4,0.4,0.6,0.6l1.7,1.7c0.6,0.6,0.6,1.2,0,1.9c-0.2,0.2-0.3,0.4-0.5,0.5c-0.5,0.5-1,1-1.5,1.5c0,0,0,0,0,0
	c-0.5,0.5-0.4,1-0.3,1.4l0,0.1c0.4,1.1,1,2,2,3.2l0,0c1.7,2.1,3.5,3.7,5.4,4.9c0.3,0.2,0.5,0.3,0.8,0.4c0.2,0.1,0.4,0.2,0.6,0.3
	c0,0,0,0,0.1,0c0.2,0.1,0.4,0.2,0.6,0.2c0.5,0,0.8-0.3,0.9-0.4l2.1-2.1c0.2-0.2,0.5-0.5,0.9-0.5c0.4,0,0.7,0.2,0.9,0.4l3.4,3.4
	C28.1,23.8,28.1,24.4,27.5,25.1L27.5,25.1z M27.5,25.1"/>
</svg>
