<?xml version="1.0" encoding="utf-8"?>
<!-- Generator: Adobe Illustrator 22.0.0, SVG Export Plug-In . SVG Version: 6.00 Build 0)  -->
<svg version="1.1" id="Layer_1" xmlns="http://www.w3.org/2000/svg" xmlns:xlink="http://www.w3.org/1999/xlink" x="0px" y="0px"
	 viewBox="0 0 160 160" style="enable-background:new 0 0 160 160;" xml:space="preserve">
<style type="text/css">
	.st0{fill:#81A88B;}
	.st1{fill:#AFB2B3;}
</style>
<g>
	<path class="st0" d="M67.6,52.9c-2.1-2-6.3-3.8-9-3.2c-3,0.6-6.3,2.9-9,4.6C47.3,55.8,27.2,70,23.2,73c0.6-2.3,12.3-13.8,14.2-15.2
		c2-1.5,3.2-3.4,4.8-5.3c1.7-2.1,3.6-3.6,5.6-5.2c1.9-1.5,7.7-7.9,9.2-9c1.1-0.9,2.7-2.7,4-2.8c1.2-0.1,2.6,1.7,3.5,2.7
		c1.1,1.2,1.9,2.4,3.7,2c1.4-0.3,2.7-2.4,3.5-3.7c1-1.5,8-9.3,10.1-12.3c1-1.4,2.2-3.1,3.8-2c1.2,0.9,1.6,2.8,2.5,4.1
		c1.3,1.8,3.4,0.4,4.8,2c2.4,2.5,3.8,5.9,6.8,7.5c1.4,0.7,2.7-1.2,3.7-2.1c3.1-2.6,5.9,1.5,8.1,4.1c1.4,1.6,2.6,3.6,3.9,5.3
		c1.5,1.9,3.4,2.7,5.1,4.1c1.7,1.6,3.1,4,4.7,5.8c3.3,3.8,12.3,16.8,12.6,20.3c-1.4-1.3-2.7-2.9-4.2-4.2c-1.5-1.4-8-5.4-9.9-5.9
		c-1.5-0.4-3.2-1.4-4.8-1.3c-0.4-1.7-1.6-3.7-2.5-5c-1-1.6-6.2-6.7-7.4-8.1c-0.8-1-3.3-2.8-3,0.1c0.1,0.9,0.7,1.8,0.8,2.7
		c-0.8-0.5-0.9-1.5-1.5-2.2c-0.6-0.8-1.5-1.1-2.3-1.7c-1.1-1-6.2-6.3-7.6-7.8c-1.6-1.6-2.4-2.1-4.6-2.2c-1.7-0.1-2.6-0.2-3.4,1.8
		c-0.7,1.5-0.9,2.7-0.4,4.4c1,3.2,2.6,6.1,3.5,9.4c-1.3-0.7-2.3-1.3-3.7-1.5c-1.5-0.2-3.1,0.3-4.5,0.3c-0.6-3.2-6.7-6.1-6.4-1.5
		c0.1,1.2,4.4,8.6,5.2,10.3C78.3,59.4,69,54.3,67.6,52.9z"/>
	<g>
		<path class="st0" d="M5.5,119.5H1l7.9-34.3h3.5l8,34.3h-4.6l-2.2-9.6h-6L5.5,119.5z M10.7,97.1l-2,8.4h3.9L10.7,97.1z"/>
		<path class="st0" d="M41.9,85.2l-8.6,34.3h-3.4l-8.5-34.3h4.5l5.7,23l5.8-23H41.9z"/>
		<path class="st0" d="M47.2,89.6v10.6H57v4.4h-9.8v10.6H57v4.4H42.8V85.2H57v4.4H47.2z"/>
		<path class="st0" d="M64.5,119.5h-4.4V85.2h3.7l8.4,20.8V85.2h4.4v34.3h-3.7l-8.4-20.8V119.5z"/>
		<path class="st0" d="M99.3,89.6h-7.5v29.9h-4.4V89.6h-7.5v-4.4h19.4V89.6z"/>
		<path class="st0" d="M109,119.5c-1.6,0-2.8-0.3-3.7-0.8c-0.9-0.5-1.6-1.1-2.1-1.7c-1.2-1.5-1.9-3.7-1.9-6.6V85.2h4.4v25.2
			c0,1.2,0.1,2.1,0.3,2.7c0.2,0.7,0.5,1.1,0.9,1.4c0.3,0.3,0.7,0.5,1.1,0.5c0.4,0,0.7,0.1,1,0.1c0.3,0,0.7,0,1-0.1
			c0.4,0,0.7-0.2,1.1-0.5c0.3-0.3,0.6-0.8,0.9-1.4c0.2-0.7,0.3-1.6,0.3-2.7V85.2h4.4v25.2c0,2.9-0.6,5-1.9,6.6
			c-0.5,0.6-1.2,1.2-2.1,1.7C111.8,119.2,110.6,119.5,109,119.5z"/>
		<path class="st0" d="M133.5,102.6c0.8,0.8,1.5,1.8,1.9,2.9c0.4,1.1,0.7,2.4,0.7,3.8v10.1h-4.4v-10.1c0-3-1.5-4.5-4.4-4.5h-2.2
			h-0.6v14.7h-4.4V85.2h7.1c2.9,0,5.2,0.9,6.7,2.6c1.4,1.6,2,4,2,7.2c0,3.2-0.7,5.6-2,7.2c-0.1,0.1-0.1,0.1-0.2,0.2
			C133.7,102.5,133.6,102.6,133.5,102.6z M127.3,100.4c1.2,0,2-0.1,2.4-0.4c0.4-0.3,0.7-0.5,0.9-0.7c0.7-0.9,1-2.3,1-4.4
			c0-1.1-0.1-2.1-0.3-2.8c-0.2-0.7-0.5-1.2-0.8-1.6c-0.4-0.4-0.8-0.6-1.3-0.8s-1.2-0.2-1.9-0.2h-2.7v10.8h0.6H127.3z"/>
		<path class="st0" d="M144.1,119.5h-4.5l7.9-34.3h3.5l8,34.3h-4.6l-2.2-9.6h-6L144.1,119.5z M149.3,97.1l-2,8.4h3.9L149.3,97.1z"/>
	</g>
	<g>
		<g>
			<path class="st1" d="M10.7,131.2h1.3v3h3.5v-3h1.3v7h-1.3v-2.9h-3.5v2.9h-1.3V131.2z"/>
			<path class="st1" d="M22.7,131.2H24v7h-1.3V131.2z"/>
			<path class="st1" d="M36,138.2h-1.6l-2.2-3l-1.1,1.2v1.8h-1.3v-7h1.3v3.5l3.2-3.5h1.6l-2.7,3L36,138.2z"/>
			<path class="st1" d="M41.1,131.2h1.3v7h-1.3V131.2z"/>
			<path class="st1" d="M53.1,131.2h1.3v7h-1.3l-3.6-4.8v4.8h-1.3v-7h1.3l3.6,4.9V131.2z"/>
			<path class="st1" d="M64.9,134.7h1.2v2.7c-0.4,0.3-0.8,0.5-1.3,0.7c-0.5,0.2-1,0.3-1.5,0.3c-0.7,0-1.3-0.2-1.9-0.5
				c-0.6-0.3-1-0.8-1.3-1.3c-0.3-0.6-0.5-1.2-0.5-1.8c0-0.7,0.2-1.3,0.5-1.8c0.3-0.5,0.8-1,1.4-1.3c0.6-0.3,1.2-0.5,1.9-0.5
				c0.5,0,1,0.1,1.5,0.3c0.5,0.2,0.9,0.4,1.3,0.7l-0.8,1c-0.3-0.3-0.6-0.5-0.9-0.6c-0.4-0.1-0.7-0.2-1.1-0.2c-0.4,0-0.8,0.1-1.2,0.3
				c-0.4,0.2-0.7,0.5-0.9,0.9s-0.3,0.8-0.3,1.2c0,0.4,0.1,0.8,0.3,1.2c0.2,0.4,0.5,0.7,0.9,0.9c0.4,0.2,0.8,0.3,1.2,0.3
				c0.2,0,0.5,0,0.8-0.1c0.3-0.1,0.5-0.2,0.8-0.3V134.7z"/>
			<path class="st1" d="M78.1,131.2h5.2v1.2h-3.8v1.7h3.4v1.2h-3.4v1.8h3.9v1.2h-5.3V131.2z"/>
			<path class="st1" d="M100.2,131.7c0.4,0.3,0.6,0.7,0.6,1.3c0,0.4-0.1,0.7-0.3,1c-0.2,0.3-0.5,0.5-0.9,0.6
				c0.5,0.1,0.8,0.3,1.1,0.6c0.3,0.3,0.4,0.7,0.4,1.2c0,0.6-0.2,1.1-0.7,1.4c-0.5,0.3-1.1,0.5-1.9,0.5h-3.2v-7h3.1
				C99.1,131.2,99.7,131.3,100.2,131.7z M99.1,133.8c0.2-0.2,0.3-0.4,0.3-0.6c0-0.3-0.1-0.5-0.3-0.6c-0.2-0.1-0.5-0.2-0.8-0.2h-1.7
				v1.7h1.7C98.7,134.1,98.9,134,99.1,133.8z M99.3,136.8c0.2-0.2,0.4-0.4,0.4-0.7c0-0.3-0.1-0.5-0.4-0.7c-0.2-0.2-0.6-0.2-1-0.2
				h-1.7v1.9h1.7C98.8,137.1,99.1,137,99.3,136.8z"/>
			<path class="st1" d="M106.4,131.2h1.3v7h-1.3V131.2z"/>
			<path class="st1" d="M119.8,138.2h-1.6l-2.2-3l-1.1,1.2v1.8h-1.3v-7h1.3v3.5l3.2-3.5h1.6l-2.7,3L119.8,138.2z"/>
			<path class="st1" d="M124.8,131.2h1.3v7h-1.3V131.2z"/>
			<path class="st1" d="M136.8,131.2h1.3v7h-1.3l-3.6-4.8v4.8h-1.3v-7h1.3l3.6,4.9V131.2z"/>
			<path class="st1" d="M148.6,134.7h1.2v2.7c-0.4,0.3-0.8,0.5-1.3,0.7c-0.5,0.2-1,0.3-1.5,0.3c-0.7,0-1.3-0.2-1.9-0.5
				c-0.6-0.3-1-0.8-1.3-1.3c-0.3-0.6-0.5-1.2-0.5-1.8c0-0.7,0.2-1.3,0.5-1.8c0.3-0.5,0.8-1,1.4-1.3c0.6-0.3,1.2-0.5,1.9-0.5
				c0.5,0,1,0.1,1.5,0.3c0.5,0.2,0.9,0.4,1.3,0.7l-0.8,1c-0.3-0.3-0.6-0.5-0.9-0.6c-0.4-0.1-0.7-0.2-1.1-0.2c-0.4,0-0.8,0.1-1.2,0.3
				c-0.4,0.2-0.7,0.5-0.9,0.9c-0.2,0.4-0.3,0.8-0.3,1.2c0,0.4,0.1,0.8,0.3,1.2c0.2,0.4,0.5,0.7,0.9,0.9c0.4,0.2,0.8,0.3,1.2,0.3
				c0.2,0,0.5,0,0.8-0.1c0.3-0.1,0.5-0.2,0.8-0.3V134.7z"/>
		</g>
	</g>
</g>
</svg>
