<?xml version="1.0" encoding="utf-8"?>
<!-- Generator: Adobe Illustrator 22.0.0, SVG Export Plug-In . SVG Version: 6.00 Build 0)  -->
<svg version="1.1" id="Layer_1" xmlns="http://www.w3.org/2000/svg" xmlns:xlink="http://www.w3.org/1999/xlink" x="0px" y="0px"
	 viewBox="0 0 160 160" style="enable-background:new 0 0 160 160;" xml:space="preserve">
<style type="text/css">
	.st0{fill:#D68B91;}
	.st1{fill:#161B33;}
</style>
<g>
	<g>
		<path class="st0" d="M45.6,70.8H24.7v-1.5h2.1V12.6h-2.1v-1.5h11.1v1.5h-2.1v56.6h5.1V52.9h6.8V70.8z M30.3,69.2V12.6h-1.7v56.6
			H30.3z M42.2,69.2V54.4h-1.7v14.8H42.2z"/>
		<path class="st0" d="M75.8,12.6h-2.1v49.9c0,2.4-1,4.4-3,6.1c-2,1.7-4.4,2.6-7.2,2.6c-2.8,0-5.2-0.9-7.2-2.6c-2-1.7-3-3.8-3-6.1
			V12.6h-2.2v-1.5h11.1v1.5h-2.1v53.6c0,0.9,0.3,1.7,1,2.4c0.7,0.7,1.5,1,2.4,1c0.9,0,1.7-0.3,2.4-1c0.7-0.7,1-1.5,1-2.4V12.6h-2.1
			v-1.5h11.1V12.6z M57.8,68.2c-0.7-1.1-1.1-2.5-1.1-4.1V12.6H55v50.5C55,65.2,55.9,66.9,57.8,68.2z M70.3,63.8V12.6h-1.7v52.4
			c0,1.7-0.4,3.1-1.3,4.2C69.3,67.9,70.3,66.1,70.3,63.8z"/>
		<path class="st0" d="M103.1,70.8H92.1v-1.5h2.1l-1.5-17.3h-6.1l-1.7,17.3H87v1.5h-6.4v-1.5h2.1l6-58.1h6.8l5.5,58.1h2.1V70.8z
			 M92.6,50.4l-2.8-32.3l-3.1,32.3H92.6z M97.6,69.2l-5.4-56.6h-1.7l5.4,56.6H97.6z"/>
	</g>
	<g>
		<path class="st0" d="M50.5,148.9H39.5v-1.5h2.1v-40.7l-4.8,42.2h-5.5l-5.6-42.2v40.7h2.1v1.5h-6.4v-1.5h2.1V90.8h-2.1v-1.5h9
			l5.9,46.5l5.1-46.5h9v1.5h-2.1v56.6h2.1V148.9z M35,147.4l-7.8-56.6h-1.9l7.8,56.6H35z M45,147.4V90.8h-1.7v56.6H45z"/>
		<path class="st0" d="M77.8,148.9H56.5v-1.5h2.1V90.8h-2.1v-1.5h21.3v17.9H71V90.8h-5.5v25.8h8.1v1.5h-8.1v29.2H71V131h6.8V148.9z
			 M62.1,147.4V90.8h-1.7v56.6H62.1z M74.4,105.6V90.8h-1.7v14.9H74.4z M74.4,147.4v-14.8h-1.7v14.8H74.4z"/>
		<path class="st0" d="M105.5,148.9H84.7v-1.5h2.1V90.8h-2.1v-1.5h11.1v1.5h-2.1v56.6h5.1V131h6.8V148.9z M90.2,147.4V90.8h-1.7
			v56.6H90.2z M102.1,147.4v-14.8h-1.7v14.8H102.1z"/>
	</g>
	<g>
		<circle class="st0" cx="115.4" cy="84.1" r="23.1"/>
		<g>
			<path class="st1" d="M111.1,80.1c1.1,0.3,2,0.9,2.7,1.7c0.7,0.8,1.2,1.8,1.5,3s0.2,2.3-0.2,3.3s-1,1.9-1.8,2.7
				c-0.9,0.7-1.9,1.2-3.2,1.5l-5,1.1l-2.6-12.3l5.1-1.1C108.9,79.8,110,79.8,111.1,80.1z M111.8,89.3c0.5-0.5,0.9-1.1,1.1-1.7
				c0.2-0.7,0.2-1.4,0.1-2.2c-0.2-0.8-0.5-1.4-1-2c-0.5-0.6-1.1-0.9-1.8-1.1c-0.7-0.2-1.4-0.2-2.2-0.1l-2.7,0.6l1.7,8.1l2.8-0.6
				C110.6,90.1,111.2,89.7,111.8,89.3z"/>
			<path class="st1" d="M117,78.1l9-1.9l0.4,2l-6.6,1.4l0.6,3l6-1.3l0.4,2l-6,1.3l0.7,3.1l6.8-1.5l0.4,2l-9.2,1.9L117,78.1z"/>
		</g>
	</g>
</g>
</svg>
