<?xml version="1.0" encoding="utf-8"?>
<!-- Generator: Adobe Illustrator 22.0.0, SVG Export Plug-In . SVG Version: 6.00 Build 0)  -->
<svg version="1.1" id="Layer_1" xmlns="http://www.w3.org/2000/svg" xmlns:xlink="http://www.w3.org/1999/xlink" x="0px" y="0px"
	 viewBox="0 0 160 160" style="enable-background:new 0 0 160 160;" xml:space="preserve">
<style type="text/css">
	.st0{fill:#3674B6;}
</style>
<g>
	<g>
		<path class="st0" d="M66.3,42.2l3.8,0.2c0,0.7,0,1.5-0.1,2.5c-0.8,38.4-1.4,50.9-4.4,54.8c-2.5,3.4-5.8,3.5-10.2,3.5
			c-2.4,0-5.3-0.1-8.3-0.2c-0.1-2.1-0.8-5-1.9-6.7c5,0.3,9.5,0.3,11.5,0.3c1.2,0,2-0.3,2.8-1.4c2-2.5,2.9-13.9,3.5-46H48.4
			c-1.3,21.1-4.6,41.2-14.2,54.1c-1.3-1.5-3.8-3.8-5.6-4.9c11.8-15.6,13.2-44.2,13.7-72.2H29.5v-7.1h20.1V0.9L59,1.4
			c-0.1,0.8-0.8,1.3-2.2,1.5v16.1h20.6v7.1H49.2c-0.1,5.3-0.2,10.7-0.4,16H66.3z M131.6,24.2H88.1c-3.1,7.2-6.8,13.6-10.9,18.3
			c-1.2-1.2-3.9-3.3-5.6-4.4c7.5-8.4,13.5-22.8,16.8-37.5l9.1,2.3c-0.2,0.8-0.9,1.2-2.3,1.1C94,8.4,92.6,12.9,91,17.2h40.6V24.2z
			 M122.9,33.9c-0.3,0.4-1,0.7-2.2,0.6c-4.1,3.2-9.2,6.4-15,9.6c1.1,6.5,2.5,12.7,4.3,18.5c5.1-4.6,10.9-10.7,14.6-15.3l6.6,5.6
			c-0.7,0.7-1.4,0.8-2.4,0.6c-4.2,4.5-11.1,10.8-16.8,15.2c4.6,12.7,11.3,22.8,20.4,28.6c-1.7,1.3-4,4.1-5.2,6.1
			c-14.9-10.5-23.1-31.1-27.4-56.2c-2.4,1.2-5,2.3-7.5,3.5v52.5h-7.1V53.8c-3.1,1.3-6.3,2.5-9.4,3.8c-0.6-1.5-1.8-4-2.9-5.4
			c16-6.3,33.3-15.1,42.5-23.4L122.9,33.9z"/>
	</g>
	<g>
		<path class="st0" d="M27.6,128.8h6.6v1.5h-4.9v2.2h4.4v1.5h-4.4v2.3h5v1.5h-6.8V128.8z"/>
		<path class="st0" d="M45.5,130.4c-0.5-0.2-0.9-0.2-1.3-0.2c-0.4,0-0.7,0.1-1,0.2c-0.2,0.2-0.4,0.4-0.4,0.6c0,0.3,0.1,0.5,0.3,0.6
			c0.2,0.2,0.4,0.3,0.6,0.4s0.6,0.2,1,0.4c0.6,0.2,1.1,0.4,1.5,0.5s0.7,0.4,1,0.8c0.3,0.4,0.4,0.8,0.4,1.4c0,0.6-0.1,1-0.4,1.4
			s-0.7,0.7-1.2,0.9c-0.5,0.2-1.1,0.3-1.8,0.3c-0.7,0-1.4-0.1-2.1-0.4s-1.3-0.6-1.8-1.1l0.7-1.5c0.5,0.4,1,0.8,1.5,1
			c0.6,0.2,1.1,0.4,1.6,0.4c0.5,0,0.9-0.1,1.1-0.3c0.3-0.2,0.4-0.4,0.4-0.8c0-0.3-0.1-0.5-0.3-0.6c-0.2-0.2-0.4-0.3-0.6-0.4
			c-0.3-0.1-0.6-0.2-1.1-0.3c-0.6-0.2-1.1-0.4-1.5-0.5c-0.4-0.2-0.7-0.4-1-0.8c-0.3-0.3-0.4-0.8-0.4-1.4c0-0.5,0.1-1,0.4-1.4
			c0.3-0.4,0.7-0.7,1.2-0.9s1.1-0.3,1.8-0.3c0.6,0,1.2,0.1,1.7,0.3c0.6,0.2,1.1,0.4,1.5,0.7l-0.7,1.5
			C46.5,130.8,46,130.6,45.5,130.4z"/>
		<path class="st0" d="M60.9,129.6c0.6,0.5,0.9,1.3,0.9,2.3c0,1-0.3,1.8-0.9,2.4c-0.6,0.6-1.5,0.9-2.6,0.9h-2v2.7h-1.7v-9h3.7
			C59.4,128.8,60.3,129.1,60.9,129.6z M59.7,133.2c0.3-0.3,0.5-0.7,0.5-1.3c0-0.5-0.2-1-0.5-1.2s-0.8-0.4-1.5-0.4h-1.9v3.3h1.9
			C58.8,133.6,59.3,133.5,59.7,133.2z"/>
		<path class="st0" d="M68.4,128.8H75v1.5h-4.9v2.2h4.4v1.5h-4.4v2.3h5v1.5h-6.8V128.8z"/>
		<path class="st0" d="M87.5,130.5c-0.4-0.2-0.9-0.3-1.3-0.3c-0.6,0-1.1,0.1-1.5,0.4c-0.5,0.3-0.8,0.6-1.1,1.1
			c-0.3,0.5-0.4,1-0.4,1.5c0,0.6,0.1,1.1,0.4,1.5c0.3,0.5,0.6,0.8,1.1,1.1c0.5,0.3,1,0.4,1.5,0.4c0.4,0,0.9-0.1,1.3-0.3
			c0.4-0.2,0.8-0.5,1.2-0.8l1,1.1c-0.5,0.5-1,0.9-1.7,1.1c-0.6,0.3-1.3,0.4-1.9,0.4c-0.9,0-1.7-0.2-2.4-0.6s-1.3-1-1.7-1.7
			c-0.4-0.7-0.6-1.5-0.6-2.4c0-0.9,0.2-1.6,0.6-2.3c0.4-0.7,1-1.3,1.7-1.7s1.5-0.6,2.4-0.6c0.6,0,1.3,0.1,1.9,0.4
			c0.6,0.3,1.1,0.6,1.6,1.1l-1,1.3C88.3,131,87.9,130.7,87.5,130.5z"/>
		<path class="st0" d="M96.2,128.8H98v9h-1.7V128.8z"/>
		<path class="st0" d="M112,137.8l-0.8-1.9h-4.4l-0.8,1.9h-1.8l4-9h1.8l3.9,9H112z M107.4,134.4h3.2l-1.6-3.8L107.4,134.4z"/>
		<path class="st0" d="M120.1,128.8h1.7v7.5h3.9v1.6h-5.6V128.8z"/>
		<path class="st0" d="M51,152c-0.4-0.2-0.9-0.3-1.3-0.3c-0.6,0-1.1,0.1-1.5,0.4c-0.5,0.3-0.8,0.6-1.1,1.1c-0.3,0.5-0.4,1-0.4,1.5
			c0,0.6,0.1,1.1,0.4,1.5c0.3,0.5,0.6,0.8,1.1,1.1c0.5,0.3,1,0.4,1.5,0.4c0.4,0,0.9-0.1,1.3-0.3c0.4-0.2,0.8-0.5,1.2-0.8l1,1.1
			c-0.5,0.5-1,0.9-1.7,1.1c-0.6,0.3-1.3,0.4-1.9,0.4c-0.9,0-1.7-0.2-2.4-0.6s-1.3-1-1.7-1.7c-0.4-0.7-0.6-1.5-0.6-2.4
			c0-0.9,0.2-1.6,0.6-2.3c0.4-0.7,1-1.3,1.7-1.7s1.5-0.6,2.4-0.6c0.6,0,1.3,0.1,1.9,0.4c0.6,0.3,1.1,0.6,1.6,1.1l-1,1.3
			C51.8,152.5,51.4,152.2,51,152z"/>
		<path class="st0" d="M59.7,150.3h1.7v3.9h4.5v-3.9h1.7v9h-1.7v-3.7h-4.5v3.7h-1.7V150.3z"/>
		<path class="st0" d="M75,150.3h1.7v9H75V150.3z"/>
		<path class="st0" d="M90.4,150.3h1.7v9h-1.6l-4.6-6.2v6.2h-1.7v-9h1.6l4.7,6.2V150.3z"/>
		<path class="st0" d="M106.2,159.3l-0.8-1.9H101l-0.8,1.9h-1.8l4-9h1.8l3.9,9H106.2z M101.6,155.9h3.2l-1.6-3.8L101.6,155.9z"/>
	</g>
</g>
</svg>
