<?xml version="1.0" encoding="utf-8"?>
<!-- Generator: Adobe Illustrator 22.0.0, SVG Export Plug-In . SVG Version: 6.00 Build 0)  -->
<svg version="1.1" id="Layer_1" xmlns="http://www.w3.org/2000/svg" xmlns:xlink="http://www.w3.org/1999/xlink" x="0px" y="0px"
	 viewBox="0 0 160 160" style="enable-background:new 0 0 160 160;" xml:space="preserve">
<style type="text/css">
	.st0{fill:#B1874A;}
	.st1{fill:#AFB2B3;}
</style>
<g>
	<g>
		<g>
			<path class="st0" d="M66.9,62.9c-1.2,0-2.1-0.2-2.9-0.5c-0.8-0.3-1.5-0.8-2.1-1.5c-0.6-0.6-1.1-1.4-1.6-2.3
				c-0.4-0.9-0.9-1.9-1.3-3h-7l-1.6,5.8c0,0.1,0,0.1,0,0.2c0,0.1,0,0.1,0,0.2c0,0.2,0.1,0.4,0.2,0.6c0.1,0.2,0.3,0.2,0.6,0.2h1.7
				v0.3h-6.6v-0.3H48c0.4,0,0.8-0.1,1.2-0.4c0.4-0.3,0.6-0.6,0.8-1.1l4.8-15.9c-0.2-0.4-0.5-0.8-0.8-1.3c-0.3-0.5-0.6-0.9-1-1.4
				c-0.4-0.4-0.7-0.8-1.1-1.1c-0.4-0.3-0.7-0.4-1.1-0.4v-0.3h5.7c0.8,0,1.5,0.1,2.1,0.4c0.6,0.3,1.1,0.6,1.6,1.1s0.8,0.9,1.1,1.4
				c0.3,0.5,0.6,1,0.8,1.5c0.3,0.8,0.7,1.6,1,2.5c0.4,0.9,0.8,1.8,1.2,2.8c0.4,1,0.8,2,1.2,2.9c0.4,1,0.8,1.9,1.2,2.8
				c0.9,2.1,1.8,4.3,2.8,6.5H66.9z M52.1,55.4h6.7L55,45.9L52.1,55.4z"/>
			<path class="st0" d="M81,47c0.3,0,0.6,0,1,0.1c0.4,0.1,0.8,0.2,1.1,0.5c0.4,0.2,0.7,0.6,0.9,1c0.3,0.4,0.4,1,0.4,1.7
				c0,0.6-0.1,1.2-0.3,1.6c-0.2,0.5-0.5,0.8-0.8,1.1c-0.3,0.3-0.6,0.5-1,0.7c-0.4,0.1-0.7,0.2-1,0.2c-0.7,0-1.2-0.2-1.5-0.7
				c-0.3-0.4-0.4-1.1-0.4-1.9c0-0.3,0-0.6,0.1-0.9c0.1-0.3,0.2-0.5,0.3-0.8c0.1-0.2,0.2-0.4,0.3-0.6c0.1-0.2,0.1-0.3,0.1-0.4
				c0-0.6-0.1-0.9-0.4-0.9c-0.4,0-0.8,0.2-1,0.5l-0.3,0.4c-0.2,0.3-0.4,0.9-0.4,1.7c-0.1,0.8-0.1,1.8-0.1,2.9v9.2h2.4v0.3H69.3v-0.3
				h2.4V46.9h-2.4v-0.3c0.6,0,1.3,0,2.1,0c0.8,0,1.6-0.1,2.4-0.1c0.8-0.1,1.6-0.1,2.3-0.2c0.7-0.1,1.3-0.2,1.7-0.3v3.5
				c0.1-0.2,0.1-0.4,0.3-0.6c0.1-0.2,0.2-0.4,0.4-0.6l0.1-0.1c0.5-0.4,0.9-0.7,1.2-0.9S80.6,47,81,47z"/>
			<path class="st0" d="M93,60.4c0.2,0.6,0.5,1,0.8,1.4s0.7,0.6,1.1,0.7c0.4,0.1,0.7,0.2,1.1,0.2v0.3h-3.5c-1,0-1.9-0.1-2.6-0.2
				c-0.7-0.1-1.3-0.4-1.7-0.8c-0.4-0.4-0.8-0.8-0.9-1.4c-0.2-0.6-0.3-1.4-0.3-2.3v-0.7V46.9h-2.4v-0.3h1c0.9,0,1.7-0.2,2.6-0.7
				c0.8-0.4,1.6-1,2.2-1.6s1.1-1.3,1.5-2.1c0.4-0.7,0.6-1.4,0.6-1.9h0.3v6.3h2.8v0.3h-2.8v11.3C92.7,59.1,92.8,59.8,93,60.4z"/>
			<path class="st0" d="M102.4,55.1c0,0.8,0,1.6,0.1,2.5c0.1,0.8,0.3,1.6,0.6,2.3c0.3,0.7,0.8,1.2,1.4,1.6c0.6,0.4,1.4,0.6,2.5,0.6
				c0.8,0,1.4-0.1,2-0.4c0.6-0.3,1.1-0.6,1.5-1.1c0.4-0.4,0.8-0.9,1.1-1.5c0.3-0.6,0.6-1.2,0.8-1.8l0.3,0c-0.3,0.8-0.6,1.6-1,2.3
				c-0.3,0.7-0.8,1.3-1.4,1.9c-0.6,0.5-1.3,0.9-2.1,1.2c-0.8,0.3-1.9,0.4-3.1,0.4c-0.6,0-1.1,0-1.5,0s-0.9-0.1-1.3-0.2
				c-0.5-0.1-0.9-0.3-1.4-0.5c-0.5-0.2-1.1-0.6-1.8-1c-0.9-0.5-1.6-1.4-2.3-2.5c-0.6-1.2-0.9-2.5-0.9-4.2c0-1.3,0.2-2.4,0.5-3.3
				s0.8-1.7,1.4-2.3c0.6-0.6,1.2-1.1,1.9-1.5s1.4-0.7,2.1-0.9c0.7-0.2,1.4-0.3,2-0.4c0.6-0.1,1.1-0.1,1.6-0.1c0.9,0,1.8,0.1,2.7,0.3
				c0.9,0.2,1.8,0.5,2.6,0.9c0.8,0.4,1.4,1,1.9,1.7c0.5,0.7,0.7,1.7,0.7,2.8c0,0.7-0.2,1.2-0.6,1.6c-0.4,0.4-0.9,0.7-1.4,0.8
				c-0.6,0.2-1.2,0.3-1.9,0.3c-0.7,0-1.3,0.1-1.9,0.1h-5.1V55.1z M104.7,46.5c-0.5,0-0.9,0.2-1.2,0.6s-0.5,0.9-0.7,1.5
				c-0.2,0.6-0.3,1.3-0.3,2c0,0.7-0.1,1.4-0.1,2.1v1.7h2.8c0.1,0,0.3,0,0.6-0.1c0.3,0,0.6-0.2,0.8-0.4c0.1-0.1,0.2-0.3,0.3-0.5
				c0.1-0.2,0.1-0.4,0.2-0.6s0.1-0.4,0.1-0.5c0-0.2,0-0.3,0-0.3c0-1.1-0.1-2.1-0.2-2.8c-0.1-0.7-0.3-1.3-0.6-1.7s-0.5-0.7-0.8-0.8
				s-0.6-0.2-0.9-0.2H104.7z"/>
		</g>
	</g>
	<g>
		<g>
			<path class="st0" d="M34.7,67.3c2.4,0,4.6,0.3,6.5,1.1c0.8,0.3,1.6,0.7,2.4,1.3c0.8,0.5,1.5,1.2,2.1,2c0.6,0.8,1.1,1.8,1.5,2.9
				s0.6,2.4,0.6,3.9c0,1.5-0.2,2.7-0.6,3.8c-0.4,1.1-0.9,2-1.5,2.8c-0.6,0.8-1.3,1.4-2.1,1.9c-0.8,0.5-1.6,0.9-2.4,1.2
				c-1.9,0.7-4.1,1-6.5,1h-1.3h-7.1h-3.1v-0.3h3.1V67.6h-3.1v-0.3h3.1h7.1H34.7z M40.5,77.5c0-1.3-0.1-2.4-0.3-3.4
				c-0.2-1-0.4-1.8-0.6-2.5c-0.3-0.7-0.6-1.3-0.9-1.8c-0.3-0.5-0.7-0.9-1.1-1.1c-0.8-0.7-1.8-1.1-2.9-1.1h-1.4v21.5h1.3
				c1.1-0.1,2.1-0.5,2.9-1.2c0.4-0.3,0.7-0.7,1.1-1.2c0.4-0.5,0.7-1.1,0.9-1.8c0.3-0.7,0.5-1.5,0.7-2.5c0.2-1,0.3-2.1,0.3-3.3V77.5z
				"/>
			<path class="st0" d="M55.6,81.5c0,0.8,0,1.6,0.1,2.5c0.1,0.8,0.3,1.6,0.6,2.3c0.3,0.7,0.8,1.2,1.4,1.6c0.6,0.4,1.4,0.6,2.5,0.6
				c0.8,0,1.4-0.1,2-0.4c0.6-0.3,1.1-0.6,1.5-1.1c0.4-0.4,0.8-0.9,1.1-1.5c0.3-0.6,0.6-1.2,0.8-1.8l0.3,0c-0.3,0.8-0.6,1.6-1,2.3
				s-0.8,1.3-1.4,1.9c-0.6,0.5-1.3,0.9-2.1,1.2c-0.8,0.3-1.9,0.4-3.1,0.4c-0.6,0-1.1,0-1.5,0c-0.4,0-0.9-0.1-1.3-0.2
				c-0.5-0.1-0.9-0.3-1.4-0.5c-0.5-0.2-1.1-0.6-1.8-1c-0.9-0.5-1.6-1.4-2.3-2.5c-0.6-1.2-0.9-2.5-0.9-4.2c0-1.3,0.2-2.4,0.5-3.3
				c0.3-0.9,0.8-1.7,1.4-2.3s1.2-1.1,1.9-1.5c0.7-0.4,1.4-0.7,2.1-0.9c0.7-0.2,1.4-0.3,2-0.4c0.6-0.1,1.1-0.1,1.6-0.1
				c0.9,0,1.8,0.1,2.7,0.3c0.9,0.2,1.8,0.5,2.6,0.9c0.8,0.4,1.4,1,1.9,1.7c0.5,0.7,0.7,1.7,0.7,2.8c0,0.7-0.2,1.2-0.6,1.6
				c-0.4,0.4-0.9,0.7-1.4,0.8c-0.6,0.2-1.2,0.3-1.9,0.3s-1.3,0.1-1.9,0.1h-5.1V81.5z M57.9,72.9c-0.5,0-0.9,0.2-1.2,0.6
				s-0.5,0.9-0.7,1.5c-0.2,0.6-0.3,1.3-0.3,2c0,0.7-0.1,1.4-0.1,2.1v1.7h2.8c0.1,0,0.3,0,0.6-0.1s0.6-0.2,0.8-0.4
				c0.1-0.1,0.2-0.3,0.3-0.5c0.1-0.2,0.1-0.4,0.2-0.6s0.1-0.4,0.1-0.5c0-0.2,0-0.3,0-0.3c0-1.1-0.1-2.1-0.2-2.8
				c-0.1-0.7-0.3-1.3-0.6-1.7s-0.5-0.7-0.8-0.8s-0.6-0.2-0.9-0.2H57.9z"/>
			<path class="st0" d="M79.5,79.8c0.3,0.2,0.6,0.4,0.9,0.7c0.3,0.3,0.6,0.6,0.9,1c0.3,0.4,0.5,0.8,0.7,1.2s0.3,0.9,0.3,1.5
				c0,0.8-0.2,1.6-0.5,2.2c-0.4,0.7-0.9,1.2-1.5,1.7c-0.7,0.5-1.4,0.8-2.3,1.1c-0.9,0.3-1.9,0.4-2.9,0.4c-0.8,0-1.6-0.1-2.5-0.4
				c-0.8-0.3-1.6-0.6-2.4-1c-0.1,0-0.2-0.1-0.3-0.1c-0.3,0-0.6,0.1-0.8,0.2c-0.2,0.1-0.4,0.3-0.6,0.4c-0.2,0.2-0.3,0.4-0.5,0.6h-0.3
				V82h0.4c0.1,0.5,0.2,1,0.3,1.4c0.1,0.4,0.2,0.9,0.4,1.3c0.2,0.5,0.4,0.9,0.6,1.3c0.3,0.5,0.6,1,1,1.4s0.7,0.7,1.1,0.9
				c0.5,0.3,1,0.5,1.6,0.6c0.6,0.1,1.2,0.2,1.7,0.2c0.4,0,0.8,0,1.2,0c0.4,0,0.8-0.1,1.1-0.2c0.3-0.1,0.6-0.2,0.8-0.4
				s0.3-0.4,0.3-0.7c0-0.5-0.2-1-0.7-1.4c-0.5-0.4-1.1-0.8-1.8-1.3c-0.7-0.4-1.5-0.8-2.3-1.3c-0.8-0.4-1.6-1-2.3-1.5
				c-0.5-0.4-0.9-0.7-1.3-1.1c-0.4-0.3-0.7-0.7-0.9-1.1s-0.5-0.8-0.6-1.2c-0.1-0.4-0.2-0.9-0.2-1.4c0-0.9,0.2-1.6,0.5-2.2
				c0.4-0.6,0.8-1.1,1.4-1.5c0.6-0.4,1.2-0.7,1.8-0.9c0.6-0.2,1.3-0.3,1.9-0.3c0.5,0,0.9,0,1.3,0.1c0.4,0.1,0.7,0.1,1.1,0.3
				c0.3,0.1,0.7,0.3,1.1,0.5s0.9,0.4,1.5,0.7c0,0,0.1,0,0.2,0c0.3,0,0.6-0.1,0.8-0.2c0.2-0.1,0.4-0.3,0.5-0.4
				c0.1-0.2,0.3-0.4,0.4-0.6h0.3l0.7,5.9h-0.3c-0.1-0.3-0.2-0.5-0.3-0.9c-0.1-0.3-0.3-0.6-0.4-0.9s-0.4-0.7-0.7-1.1
				c-0.1-0.2-0.4-0.5-0.7-0.8c-0.3-0.3-0.7-0.6-1.1-0.9c-0.1-0.1-0.3-0.2-0.6-0.3c-0.2-0.1-0.5-0.3-0.8-0.4c-0.3-0.1-0.7-0.3-1-0.3
				c-0.4-0.1-0.8-0.1-1.1-0.1c-0.2,0-0.4,0-0.7,0s-0.5,0.1-0.7,0.1c-0.2,0.1-0.4,0.2-0.6,0.3c-0.1,0.1-0.2,0.3-0.2,0.6
				c0,0.7,0.2,1.3,0.7,1.7c0.5,0.4,1.1,0.8,1.8,1.2c0.8,0.4,1.7,0.9,2.6,1.3C78,78.9,78.8,79.3,79.5,79.8z"/>
			<path class="st0" d="M94.5,89.1v0.3h-11v-0.3h2.4V73.3h-2.4v-0.3c0.6,0,1.3,0,2.1,0c0.8,0,1.6-0.1,2.5-0.1
				c0.8-0.1,1.6-0.1,2.3-0.2s1.3-0.2,1.8-0.3v16.7H94.5z M92.3,68.2c-0.2-0.3-0.4-0.6-0.8-0.8c-0.3-0.2-0.7-0.4-1.1-0.5
				c-0.4-0.1-0.9-0.2-1.4-0.2c-0.5,0-0.9,0.1-1.4,0.2c-0.4,0.1-0.8,0.3-1.1,0.5c-0.3,0.2-0.6,0.5-0.8,0.8c-0.2,0.3-0.3,0.6-0.3,0.9
				s0.1,0.7,0.3,0.9c0.2,0.3,0.4,0.5,0.8,0.8c0.3,0.2,0.7,0.4,1.1,0.5c0.4,0.1,0.9,0.2,1.4,0.2c0.5,0,0.9-0.1,1.4-0.2
				c0.4-0.1,0.8-0.3,1.1-0.5c0.3-0.2,0.6-0.5,0.8-0.8c0.2-0.3,0.3-0.6,0.3-0.9S92.5,68.4,92.3,68.2z"/>
			<path class="st0" d="M115.3,71.1c0,0.5-0.2,0.9-0.5,1.2c-0.4,0.3-0.8,0.5-1.3,0.7c-0.5,0.2-1.1,0.3-1.7,0.4
				c-0.6,0.1-1.2,0.3-1.7,0.4l0.4,0.2c0.8,0.4,1.4,0.9,2,1.7c0.6,0.8,0.8,1.7,0.8,2.7c0,0.9-0.2,1.6-0.5,2.3
				c-0.3,0.6-0.8,1.1-1.3,1.6s-1.1,0.8-1.8,1c-0.7,0.2-1.3,0.4-2,0.6c-0.7,0.1-1.3,0.2-1.9,0.2c-0.6,0-1.1,0-1.6,0
				c-0.4,0-0.9,0-1.4,0c-0.5,0-1,0.1-1.4,0.1s-0.8,0.2-1.1,0.4c-0.3,0.2-0.5,0.5-0.5,0.8c0,0.3,0.1,0.6,0.3,0.8
				c0.2,0.2,0.6,0.4,1.3,0.4c0.6,0,1.2-0.1,1.8-0.2s1.1-0.2,1.7-0.4c0.6-0.1,1.2-0.3,1.9-0.4c0.7-0.1,1.5-0.2,2.3-0.2
				c0.7,0,1.3,0.1,1.9,0.2c0.6,0.1,1.1,0.4,1.5,0.7c0.4,0.3,0.7,0.8,1,1.4c0.2,0.6,0.3,1.3,0.3,2.2c0,1-0.3,1.9-0.8,2.6
				c-0.5,0.7-1.2,1.2-2.1,1.5c-0.8,0.4-1.8,0.6-2.8,0.7c-1,0.1-2,0.2-2.9,0.2c-0.8,0-1.7,0-2.6-0.1c-0.9-0.1-1.8-0.2-2.6-0.3
				c-0.8-0.2-1.5-0.4-2-0.8c-0.5-0.3-0.8-0.8-0.8-1.3c0-0.5,0.1-1,0.4-1.3c0.3-0.3,0.6-0.5,0.9-0.5c-0.5-0.2-0.9-0.4-1.2-0.7
				s-0.5-0.5-0.7-0.8c-0.2-0.3-0.3-0.5-0.3-0.8c0-0.3-0.1-0.5-0.1-0.8c0-0.8,0.2-1.4,0.6-1.9c0.4-0.5,0.9-0.9,1.4-1.2
				s1.2-0.5,1.8-0.6c0.6-0.1,1.2-0.2,1.8-0.2c-0.5-0.1-1-0.2-1.7-0.5s-1.2-0.6-1.8-1c-0.6-0.4-1-0.9-1.4-1.6
				c-0.4-0.6-0.6-1.4-0.6-2.3c0-1.1,0.3-2.1,0.8-2.8c0.5-0.7,1.2-1.3,2.1-1.7c0.8-0.4,1.8-0.7,2.8-0.9c1-0.2,2-0.2,2.9-0.2
				c0.8,0,1.6,0.1,2.4,0.2c0.8,0.1,1.6,0.3,2.4,0.6c0.2-0.4,0.4-0.8,0.7-1.2c0.3-0.4,0.6-0.9,0.9-1.2c0.3-0.4,0.7-0.7,1.2-1
				c0.4-0.3,0.9-0.4,1.4-0.4c0.1,0,0.3,0,0.5,0c0.2,0,0.4,0.1,0.5,0.2c0.2,0.1,0.3,0.2,0.4,0.4C115.2,70.5,115.3,70.8,115.3,71.1z
				 M105.2,94.8c1.9,0,3.2-0.3,4-0.8c0.8-0.5,1.2-1.2,1.2-2.1c0-0.4-0.2-0.8-0.5-1c-0.3-0.3-0.9-0.4-1.6-0.4c-0.5,0-0.9,0.1-1.3,0.2
				s-0.8,0.2-1.2,0.4c-0.4,0.1-0.9,0.3-1.3,0.4s-1,0.2-1.7,0.2h-1c-0.1,0-0.1,0-0.1,0c-0.2,0-0.4,0.1-0.5,0.1
				c-0.1,0-0.2,0.1-0.3,0.2c-0.1,0.1-0.1,0.2-0.1,0.4c0,0.9,0.4,1.5,1.1,1.9C102.5,94.6,103.6,94.8,105.2,94.8z M106.5,83
				c0.4-0.4,0.6-1,0.7-1.8c0.1-0.8,0.1-1.8,0.1-2.9c0-0.5,0-1,0-1.5c0-0.5,0-1-0.1-1.4s-0.1-0.8-0.2-1.1c-0.1-0.3-0.3-0.6-0.5-0.7
				c-0.4-0.3-0.8-0.5-1-0.6c-0.2-0.1-0.5-0.1-0.8-0.1h-0.1c-0.6,0-1,0.1-1.4,0.3c-0.3,0.2-0.6,0.6-0.8,1s-0.3,1-0.3,1.7
				s-0.1,1.5-0.1,2.4c0,0.8,0,1.4,0,2c0,0.6,0.1,1.1,0.2,1.6c0.1,0.4,0.3,0.8,0.5,1.1c0.2,0.3,0.5,0.5,0.9,0.5c0.1,0,0.2,0,0.3,0.1
				c0.1,0,0.2,0,0.3,0c0.1,0,0.3,0,0.4,0c0.1,0,0.2,0,0.3,0c0.1,0,0.2,0,0.3,0c0.1,0,0.2-0.1,0.3-0.1c0.1,0,0.2-0.1,0.3-0.2
				C106.2,83.3,106.3,83.2,106.5,83z"/>
			<path class="st0" d="M135.6,89.4h-2.8c-1,0-1.9-0.1-2.6-0.4c-0.7-0.2-1.3-0.6-1.7-1c-0.4-0.4-0.8-0.9-0.9-1.5
				c-0.2-0.6-0.3-1.2-0.3-1.8v-8.7c0-0.4,0-0.8-0.1-1.3s-0.3-0.8-0.5-1.1c-0.1-0.1-0.3-0.2-0.5-0.3c-0.2-0.1-0.4-0.1-0.6-0.1
				c-0.2,0-0.4,0.1-0.5,0.2c-0.2,0.1-0.3,0.3-0.5,0.4c-0.2,0.2-0.3,0.5-0.5,0.8c-0.1,0.3-0.2,0.7-0.3,1.1c-0.1,0.4-0.2,0.8-0.2,1.1
				c0,0.4-0.1,0.7-0.1,0.9v11.4h2.4v0.3h-11.1v-0.3h2.4V73.3h-2.4v-0.3c0.6,0,1.3,0,2.1,0c0.8,0,1.7-0.1,2.5-0.1
				c0.8-0.1,1.6-0.1,2.4-0.2s1.3-0.2,1.8-0.3v2.4c0.2-0.4,0.3-0.7,0.5-0.9c0.2-0.2,0.4-0.5,0.8-0.7c0.5-0.4,1-0.7,1.6-0.9
				c0.6-0.2,1.1-0.3,1.8-0.3c0.6,0,1.3,0.1,2,0.2c0.7,0.1,1.3,0.3,1.9,0.7s1,0.8,1.3,1.5c0.1,0.2,0.2,0.5,0.3,0.7
				c0.1,0.2,0.1,0.5,0.1,0.7v9.3c0,1.2,0.1,2.2,0.4,2.9s0.8,1.1,1.5,1.1V89.4z"/>
		</g>
	</g>
	<g>
		<path class="st1" d="M25.1,100.7h4.3v1h-3.2v1.4h2.8v1h-2.8v1.5h3.3v1h-4.4V100.7z"/>
		<path class="st1" d="M43.7,106.6l-0.5-1.2h-2.9l-0.5,1.2h-1.2l2.6-5.9h1.2l2.5,5.9H43.7z M40.8,104.3h2.1l-1-2.5L40.8,104.3z"/>
		<path class="st1" d="M52.7,106.6l-1-1.7c0,0-0.1,0-0.2,0h-1.3v1.7H49v-5.9h2.4c0.8,0,1.3,0.2,1.8,0.5s0.6,0.8,0.6,1.5
			c0,0.5-0.1,0.8-0.3,1.2c-0.2,0.3-0.5,0.6-0.9,0.7l1.3,1.9H52.7z M50.1,103.8h1.3c0.4,0,0.7-0.1,1-0.3c0.2-0.2,0.3-0.5,0.3-0.8
			c0-0.4-0.1-0.6-0.3-0.8c-0.2-0.2-0.5-0.3-1-0.3h-1.3V103.8z"/>
		<path class="st1" d="M64.5,107.2c-0.2,0.2-0.5,0.4-0.8,0.5c-0.3,0.1-0.6,0.2-0.9,0.2c-0.4,0-0.7-0.1-1-0.3
			c-0.3-0.2-0.6-0.5-0.8-0.9c-0.6,0-1.1-0.1-1.6-0.4c-0.5-0.3-0.8-0.6-1.1-1.1c-0.3-0.5-0.4-1-0.4-1.5s0.1-1.1,0.4-1.5
			c0.3-0.5,0.6-0.8,1.1-1.1s1-0.4,1.6-0.4s1.1,0.1,1.6,0.4c0.5,0.3,0.9,0.6,1.1,1.1c0.3,0.5,0.4,1,0.4,1.5c0,0.4-0.1,0.8-0.3,1.2
			c-0.2,0.4-0.4,0.7-0.7,1c-0.3,0.3-0.7,0.5-1.1,0.6c0.3,0.3,0.6,0.5,0.9,0.5c0.3,0,0.7-0.2,1.1-0.5L64.5,107.2z M59.4,104.6
			c0.2,0.3,0.4,0.5,0.7,0.7c0.3,0.2,0.6,0.3,1,0.3c0.4,0,0.7-0.1,1-0.3c0.3-0.2,0.5-0.4,0.7-0.7c0.2-0.3,0.3-0.6,0.3-1
			c0-0.4-0.1-0.7-0.3-1c-0.2-0.3-0.4-0.5-0.7-0.7c-0.3-0.2-0.6-0.3-1-0.3c-0.4,0-0.7,0.1-1,0.3c-0.3,0.2-0.5,0.4-0.7,0.7
			c-0.2,0.3-0.3,0.6-0.3,1C59.1,104,59.2,104.3,59.4,104.6z"/>
		<path class="st1" d="M70,105.2c0.3,0.3,0.6,0.4,1.1,0.4c0.4,0,0.8-0.1,1-0.4c0.3-0.3,0.4-0.6,0.4-1.1v-3.4h1.1v3.4
			c0,0.5-0.1,1-0.3,1.3c-0.2,0.4-0.5,0.7-0.9,0.9c-0.4,0.2-0.8,0.3-1.4,0.3c-0.5,0-1-0.1-1.4-0.3s-0.7-0.5-0.9-0.9s-0.3-0.8-0.3-1.3
			v-3.4h1.1v3.4C69.6,104.6,69.7,105,70,105.2z"/>
		<path class="st1" d="M78.3,100.7h1.1v5.9h-1.1V100.7z"/>
		<path class="st1" d="M83.5,100.7h4.8v1h-1.8v4.9h-1.1v-4.9h-1.8V100.7z"/>
		<path class="st1" d="M92.5,100.7h4.3v1h-3.2v1.4h2.8v1h-2.8v1.5h3.3v1h-4.4V100.7z"/>
		<path class="st1" d="M100.7,100.7h4.8v1h-1.8v4.9h-1.1v-4.9h-1.8V100.7z"/>
		<path class="st1" d="M111,105.2c0.3,0.3,0.6,0.4,1.1,0.4c0.4,0,0.8-0.1,1-0.4c0.3-0.3,0.4-0.6,0.4-1.1v-3.4h1.1v3.4
			c0,0.5-0.1,1-0.3,1.3c-0.2,0.4-0.5,0.7-0.9,0.9c-0.4,0.2-0.8,0.3-1.4,0.3c-0.5,0-1-0.1-1.4-0.3s-0.7-0.5-0.9-0.9s-0.3-0.8-0.3-1.3
			v-3.4h1.1v3.4C110.6,104.6,110.8,105,111,105.2z"/>
		<path class="st1" d="M123,106.6l-1-1.7c0,0-0.1,0-0.2,0h-1.3v1.7h-1.1v-5.9h2.4c0.8,0,1.3,0.2,1.8,0.5s0.6,0.8,0.6,1.5
			c0,0.5-0.1,0.8-0.3,1.2c-0.2,0.3-0.5,0.6-0.9,0.7l1.3,1.9H123z M120.4,103.8h1.3c0.4,0,0.7-0.1,1-0.3c0.2-0.2,0.3-0.5,0.3-0.8
			c0-0.4-0.1-0.6-0.3-0.8c-0.2-0.2-0.5-0.3-1-0.3h-1.3V103.8z"/>
		<path class="st1" d="M133,106.6l-0.5-1.2h-2.9l-0.5,1.2H128l2.6-5.9h1.2l2.5,5.9H133z M130,104.3h2.1l-1-2.5L130,104.3z"/>
	</g>
	<g>
		<path class="st0" d="M80,157.3c-20.6,0-40.1-8-54.7-22.6C10.7,120.1,2.7,100.6,2.7,80c0-20.6,8-40.1,22.6-54.7S59.4,2.7,80,2.7
			c20.6,0,40.1,8,54.7,22.6s22.6,34,22.6,54.7c0,20.6-8,40.1-22.6,54.7C120.1,149.3,100.6,157.3,80,157.3z M80,7.1
			C39.8,7.1,7.1,39.8,7.1,80c0,40.2,32.7,72.9,72.9,72.9c40.2,0,72.9-32.7,72.9-72.9C152.9,39.8,120.2,7.1,80,7.1z"/>
	</g>
</g>
</svg>
